<mxfile host="app.diagrams.net" agent="Mozilla/5.0 (Windows NT 10.0; Win64; x64) AppleWebKit/537.36 (KHTML, like Gecko) Chrome/138.0.0.0 Safari/537.36" version="28.0.7">
  <diagram name="Page-1" id="5P8XJ4D3WPZhYg3Q0Ow8">
    <mxGraphModel dx="3294" dy="1143" grid="1" gridSize="10" guides="1" tooltips="1" connect="1" arrows="1" fold="1" page="1" pageScale="1" pageWidth="1100" pageHeight="850" math="0" shadow="0">
      <root>
        <mxCell id="0" />
        <mxCell id="1" parent="0" />
        <mxCell id="dKHm2q9X8hIztBl-4UJd-1" style="edgeStyle=orthogonalEdgeStyle;rounded=0;orthogonalLoop=1;jettySize=auto;html=1;" parent="1" source="dKHm2q9X8hIztBl-4UJd-35" target="dKHm2q9X8hIztBl-4UJd-6" edge="1">
          <mxGeometry relative="1" as="geometry">
            <mxPoint x="-540" y="519" as="sourcePoint" />
          </mxGeometry>
        </mxCell>
        <mxCell id="dKHm2q9X8hIztBl-4UJd-2" value="&lt;font style=&quot;font-size: 15px;&quot;&gt;Successul Authenication&lt;/font&gt;" style="edgeLabel;html=1;align=center;verticalAlign=middle;resizable=0;points=[];" parent="dKHm2q9X8hIztBl-4UJd-1" vertex="1" connectable="0">
          <mxGeometry x="-0.2174" y="-1" relative="1" as="geometry">
            <mxPoint as="offset" />
          </mxGeometry>
        </mxCell>
        <mxCell id="dKHm2q9X8hIztBl-4UJd-3" value="VULTR (Virtual Machines)" style="swimlane;whiteSpace=wrap;html=1;startSize=10;" parent="1" vertex="1">
          <mxGeometry x="-340" y="130" width="620" height="580" as="geometry" />
        </mxCell>
        <mxCell id="dKHm2q9X8hIztBl-4UJd-4" style="edgeStyle=orthogonalEdgeStyle;rounded=0;orthogonalLoop=1;jettySize=auto;html=1;dashed=1;" parent="dKHm2q9X8hIztBl-4UJd-3" source="dKHm2q9X8hIztBl-4UJd-6" target="dKHm2q9X8hIztBl-4UJd-7" edge="1">
          <mxGeometry relative="1" as="geometry" />
        </mxCell>
        <mxCell id="dKHm2q9X8hIztBl-4UJd-5" value="&lt;span style=&quot;font-size: 20px;&quot;&gt;Telemetry&lt;/span&gt;" style="edgeLabel;html=1;align=center;verticalAlign=middle;resizable=0;points=[];" parent="dKHm2q9X8hIztBl-4UJd-4" vertex="1" connectable="0">
          <mxGeometry x="-0.282" y="-3" relative="1" as="geometry">
            <mxPoint as="offset" />
          </mxGeometry>
        </mxCell>
        <mxCell id="dKHm2q9X8hIztBl-4UJd-6" value="&lt;font style=&quot;font-size: 20px;&quot;&gt;Test Machine&lt;/font&gt;&lt;div&gt;&lt;font style=&quot;font-size: 20px;&quot;&gt;WIndows Server&lt;br&gt;Domain CipherNox.local&lt;/font&gt;&lt;/div&gt;" style="sketch=0;outlineConnect=0;fillColor=#dae8fc;strokeColor=#6c8ebf;dashed=0;verticalLabelPosition=bottom;verticalAlign=top;align=center;html=1;fontSize=12;fontStyle=0;aspect=fixed;pointerEvents=1;shape=mxgraph.aws4.servers;gradientColor=#7ea6e0;" parent="dKHm2q9X8hIztBl-4UJd-3" vertex="1">
          <mxGeometry x="90" y="350" width="78" height="78" as="geometry" />
        </mxCell>
        <mxCell id="dKHm2q9X8hIztBl-4UJd-7" value="&lt;font style=&quot;font-size: 20px;&quot;&gt;Splunk&lt;/font&gt;" style="sketch=0;outlineConnect=0;fillColor=#d5e8d4;strokeColor=#82b366;dashed=0;verticalLabelPosition=bottom;verticalAlign=top;align=center;html=1;fontSize=12;fontStyle=0;aspect=fixed;pointerEvents=1;shape=mxgraph.aws4.servers;gradientColor=#97d077;" parent="dKHm2q9X8hIztBl-4UJd-3" vertex="1">
          <mxGeometry x="460" y="200" width="78" height="78" as="geometry" />
        </mxCell>
        <mxCell id="dKHm2q9X8hIztBl-4UJd-8" value="&lt;font style=&quot;font-size: 20px;&quot;&gt;Domain Controller&amp;nbsp;&lt;/font&gt;&lt;div&gt;&lt;font style=&quot;font-size: 20px;&quot;&gt;WindowsSErver &lt;br&gt;Domain: CipherNox.local&lt;/font&gt;&lt;/div&gt;" style="sketch=0;outlineConnect=0;fontColor=#232F3E;gradientColor=none;fillColor=#232F3D;strokeColor=none;dashed=0;verticalLabelPosition=bottom;verticalAlign=top;align=center;html=1;fontSize=12;fontStyle=0;aspect=fixed;pointerEvents=1;shape=mxgraph.aws4.servers;" parent="dKHm2q9X8hIztBl-4UJd-3" vertex="1">
          <mxGeometry x="90" y="60" width="78" height="78" as="geometry" />
        </mxCell>
        <mxCell id="dKHm2q9X8hIztBl-4UJd-9" style="edgeStyle=orthogonalEdgeStyle;rounded=0;orthogonalLoop=1;jettySize=auto;html=1;dashed=1;" parent="dKHm2q9X8hIztBl-4UJd-3" source="dKHm2q9X8hIztBl-4UJd-8" target="dKHm2q9X8hIztBl-4UJd-7" edge="1">
          <mxGeometry relative="1" as="geometry" />
        </mxCell>
        <mxCell id="dKHm2q9X8hIztBl-4UJd-10" value="&lt;font style=&quot;font-size: 20px;&quot;&gt;Telemetry&lt;/font&gt;" style="edgeLabel;html=1;align=center;verticalAlign=middle;resizable=0;points=[];" parent="dKHm2q9X8hIztBl-4UJd-9" vertex="1" connectable="0">
          <mxGeometry x="-0.0797" relative="1" as="geometry">
            <mxPoint as="offset" />
          </mxGeometry>
        </mxCell>
        <mxCell id="dKHm2q9X8hIztBl-4UJd-11" style="edgeStyle=orthogonalEdgeStyle;rounded=0;orthogonalLoop=1;jettySize=auto;html=1;" parent="1" source="dKHm2q9X8hIztBl-4UJd-15" target="dKHm2q9X8hIztBl-4UJd-26" edge="1">
          <mxGeometry relative="1" as="geometry">
            <Array as="points">
              <mxPoint x="640" y="220" />
              <mxPoint x="640" y="220" />
            </Array>
          </mxGeometry>
        </mxCell>
        <mxCell id="dKHm2q9X8hIztBl-4UJd-12" value="&lt;font style=&quot;font-size: 14px;&quot;&gt;Email Notification&lt;/font&gt;" style="edgeLabel;html=1;align=center;verticalAlign=middle;resizable=0;points=[];" parent="dKHm2q9X8hIztBl-4UJd-11" vertex="1" connectable="0">
          <mxGeometry x="-0.1492" relative="1" as="geometry">
            <mxPoint as="offset" />
          </mxGeometry>
        </mxCell>
        <mxCell id="dKHm2q9X8hIztBl-4UJd-13" style="edgeStyle=orthogonalEdgeStyle;rounded=0;orthogonalLoop=1;jettySize=auto;html=1;fillColor=#d5e8d4;gradientColor=#97d077;strokeColor=#82b366;dashed=1;" parent="1" source="dKHm2q9X8hIztBl-4UJd-15" target="dKHm2q9X8hIztBl-4UJd-8" edge="1">
          <mxGeometry relative="1" as="geometry">
            <Array as="points">
              <mxPoint x="430" y="50" />
              <mxPoint x="-211" y="50" />
            </Array>
          </mxGeometry>
        </mxCell>
        <mxCell id="dKHm2q9X8hIztBl-4UJd-14" value="Disable Domain User" style="edgeLabel;html=1;align=center;verticalAlign=middle;resizable=0;points=[];" parent="dKHm2q9X8hIztBl-4UJd-13" vertex="1" connectable="0">
          <mxGeometry x="-0.1061" relative="1" as="geometry">
            <mxPoint as="offset" />
          </mxGeometry>
        </mxCell>
        <mxCell id="dKHm2q9X8hIztBl-4UJd-15" value="&lt;font style=&quot;font-size: 14px;&quot;&gt;Shuffle&lt;/font&gt;" style="ellipse;shape=cloud;whiteSpace=wrap;html=1;fillColor=light-dark(#FFCD28,#FADBAE);gradientColor=#ffa500;strokeColor=#d79b00;" parent="1" vertex="1">
          <mxGeometry x="360" y="190" width="120" height="80" as="geometry" />
        </mxCell>
        <mxCell id="dKHm2q9X8hIztBl-4UJd-16" value="&lt;font style=&quot;font-size: 13px;&quot;&gt;Slack&lt;/font&gt;" style="ellipse;shape=cloud;whiteSpace=wrap;html=1;fillColor=light-dark(#E6D0DE,#967BAB);gradientColor=light-dark(#D5739D,#7A38B5);strokeColor=#996185;" parent="1" vertex="1">
          <mxGeometry x="380" y="440" width="120" height="80" as="geometry" />
        </mxCell>
        <mxCell id="dKHm2q9X8hIztBl-4UJd-17" style="edgeStyle=orthogonalEdgeStyle;rounded=0;orthogonalLoop=1;jettySize=auto;html=1;entryX=0.089;entryY=0.494;entryDx=0;entryDy=0;entryPerimeter=0;" parent="1" target="dKHm2q9X8hIztBl-4UJd-16" edge="1">
          <mxGeometry relative="1" as="geometry">
            <Array as="points">
              <mxPoint x="380" y="369" />
              <mxPoint x="350" y="369" />
              <mxPoint x="350" y="480" />
              <mxPoint x="391" y="480" />
            </Array>
            <mxPoint x="380" y="260" as="sourcePoint" />
          </mxGeometry>
        </mxCell>
        <mxCell id="dKHm2q9X8hIztBl-4UJd-18" value="&lt;font style=&quot;font-size: 14px;&quot;&gt;Alert Notification&lt;/font&gt;" style="edgeLabel;html=1;align=center;verticalAlign=middle;resizable=0;points=[];" parent="dKHm2q9X8hIztBl-4UJd-17" vertex="1" connectable="0">
          <mxGeometry x="-0.0686" y="-4" relative="1" as="geometry">
            <mxPoint x="17" y="45" as="offset" />
          </mxGeometry>
        </mxCell>
        <mxCell id="dKHm2q9X8hIztBl-4UJd-19" style="edgeStyle=orthogonalEdgeStyle;rounded=0;orthogonalLoop=1;jettySize=auto;html=1;entryX=0.16;entryY=0.55;entryDx=0;entryDy=0;entryPerimeter=0;" parent="1" source="dKHm2q9X8hIztBl-4UJd-7" target="dKHm2q9X8hIztBl-4UJd-15" edge="1">
          <mxGeometry relative="1" as="geometry">
            <Array as="points">
              <mxPoint x="320" y="369" />
              <mxPoint x="320" y="234" />
            </Array>
            <mxPoint x="210" y="369" as="sourcePoint" />
          </mxGeometry>
        </mxCell>
        <mxCell id="dKHm2q9X8hIztBl-4UJd-20" value="&lt;font style=&quot;font-size: 13px;&quot;&gt;Trigger Playbook&lt;/font&gt;" style="edgeLabel;html=1;align=center;verticalAlign=middle;resizable=0;points=[];" parent="dKHm2q9X8hIztBl-4UJd-19" vertex="1" connectable="0">
          <mxGeometry x="-0.3169" y="1" relative="1" as="geometry">
            <mxPoint x="21" y="-68" as="offset" />
          </mxGeometry>
        </mxCell>
        <mxCell id="dKHm2q9X8hIztBl-4UJd-21" value="Successul Unauthorized&amp;nbsp;&lt;br&gt;Login Playbook" style="swimlane;fontStyle=0;childLayout=stackLayout;horizontal=1;startSize=30;horizontalStack=0;resizeParent=1;resizeParentMax=0;resizeLast=0;collapsible=1;marginBottom=0;whiteSpace=wrap;html=1;" parent="1" vertex="1">
          <mxGeometry x="310" y="560" width="200" height="140" as="geometry" />
        </mxCell>
        <mxCell id="dKHm2q9X8hIztBl-4UJd-22" value="Send an email to SOC analyst asking if they want disable the user" style="text;strokeColor=none;fillColor=none;align=left;verticalAlign=middle;spacingLeft=4;spacingRight=4;overflow=hidden;points=[[0,0.5],[1,0.5]];portConstraint=eastwest;rotatable=0;whiteSpace=wrap;html=1;" parent="dKHm2q9X8hIztBl-4UJd-21" vertex="1">
          <mxGeometry y="30" width="200" height="70" as="geometry" />
        </mxCell>
        <mxCell id="dKHm2q9X8hIztBl-4UJd-23" value="If Yes - Disable Domain Account&lt;div&gt;If NO - Do Nothing&lt;/div&gt;" style="text;strokeColor=none;fillColor=none;align=left;verticalAlign=middle;spacingLeft=4;spacingRight=4;overflow=hidden;points=[[0,0.5],[1,0.5]];portConstraint=eastwest;rotatable=0;whiteSpace=wrap;html=1;" parent="dKHm2q9X8hIztBl-4UJd-21" vertex="1">
          <mxGeometry y="100" width="200" height="40" as="geometry" />
        </mxCell>
        <mxCell id="dKHm2q9X8hIztBl-4UJd-25" style="edgeStyle=orthogonalEdgeStyle;rounded=0;orthogonalLoop=1;jettySize=auto;html=1;entryX=0;entryY=0.5;entryDx=0;entryDy=0;" parent="1" source="dKHm2q9X8hIztBl-4UJd-26" target="dKHm2q9X8hIztBl-4UJd-29" edge="1">
          <mxGeometry relative="1" as="geometry">
            <mxPoint x="790" y="220" as="targetPoint" />
            <Array as="points" />
          </mxGeometry>
        </mxCell>
        <mxCell id="dKHm2q9X8hIztBl-4UJd-26" value="Soc Analyst" style="shape=image;verticalLabelPosition=bottom;labelBackgroundColor=default;verticalAlign=top;aspect=fixed;imageAspect=0;image=data:image/png,iVBORw0KGgoAAAANSUhEUgAAAgAAAAIACAYAAAD0eNT6AAAACXBIWXMAAA7DAAAOwwHHb6hkAAAAGXRFWHRTb2Z0d2FyZQB3d3cuaW5rc2NhcGUub3Jnm+48GgAAIABJREFUeJzs3XeYXOV5NvD7PWVmtqt31BCorApCgFABJKxGLzYi/hw77hLgEju422gIsZN8zpfEBCGIsbGdxEW4xAZjigAZtJJpRki7aogmAWrbtG12Z+ac9/tjJSwkrTQ7e2aeU+7fdfkKZXfOHbEz773nnOc9ABERERERERERERERERERERERERERERERERERERERERH5hZIOQESFMee+ugFwnCFKo79y0U8B/QGUAwAMVQJXJ478dSdcner+a6NVu26zNtCsFZpgmgc3fbK6Uer/ByIqHBYAoqDSWs25e9uZpuFO0gqToDERwARoNQJKnwGgxKMjpaDVXhj6baX1bkDtdDV2wMSOjZ+e+hqU0h4dh4iKiAWAKCDmrNk80tTGJVrhPA11rgJmAqgUjtWigZcMrV50FZ5XWevpms9Oekc4ExHlgAWAyKfm3Fc3QGX0EkPpJVrjYgBnSmfK0W4NPK0UHlOufmzDzdObpAMR0YlYAIh8ZO69W880XH2D1uoKKMwBYEpn6qMsoDZp4CHLch54+lMzXpcORETdWACIhM1Zs3mkocwPQuNGAOdJ5ymw5xXwC521f8ZLBUSyWACIBFSvrYv1b9RLNfBhaH0dAEs6U5G5AJ5UWv9n0yDzt3XLq9PSgYiihgWAqIhmf3/rUDujP6qV+iyAkdJ5fOKgVup+rbP/semmc96WDkMUFSwAREVw4eqtkw0DX1PAjQBi0nl8qgvQP4fW/1hz84yd0mGIwo4FgKiALv7+y+OyjvlVpfUnEPwb+orFhVK/UtnsNzd85pxd0mGIwooFgKgA5t61bQws9+tK648jetf3veJCqV+5jvr6pluqd0uHIQobFgAiD128eusZjsIqKHwEgC2dJyQyWqn7HdO549lPzXhLOgxRWLAAEHlg1r0v2CU6frPWuANAhXSekOpQwHebBhrf4dQAUd+xABD10dx7tlystFoNYKp0lojYqbT+zIabp6+TDkIUZCwARHlasLpuWNpw/68C/hp8LxWb1sB/A+6tG2+acVA6DFEQ8UOLqLe0VvPu2fppKPVP0OgnHSfimqDwpZqV034gHYQoaFgAiHrhojv/PNi1rfsAdbV0FvoLrfC/MRX71PoVE+ulsxAFBQsAUY7m371lkVb4MaBGSGehkzoArT9Wc/P0P0gHIQoCFgCi07jszlfih2NdtyutvwTAkM5Dp6QV8B8VmcSX//C5s7qkwxD5GQsA0SlcuHrrZNPAzwDMkM5CvaCwGa77V9xSmKhn/G2GqAfz7t5ymWliI7j4B4/GOVDG8/PuruO9GkQ9YAEgOon592z9PJR6iHf5B1oFlPu/89dsTUoHIfIjXgIgOsaC+19PZFJt9x7ZypdCQgE/d1KtH9/0xbkp6SxEfsECQHTEnDWbRxowfwPgfOksVAj6JWWY125YUb1HOgmRH7AAEAGYs6ZupgH3YQDDpLNQIel3XAPLNq2YvlU6CZE03gNAkTfv7pcvMuE+BS7+EaBGGFo9fdGa2nnSSYiksQBQpM29e+sVUMYjGqiSzkJFotHPhX5s/j11y6SjEEliAaDImn9P7QeVwm8AlEpnoaIr1dr97bw1W5dLByGSwgJAkTR3zdabtNb/DcCWzkJiYgB+Ov/uLZ+WDkIkgQWAImfePVtvVcDd4M8/AaZW6p55d9f+rXQQomLjFABFyvy7a2/RSt8lnYN8R0Ph5pqV0+6RDkJULCwAFBnz7q79Gyj9Q/A3fzo5DYVP1ayc9gPpIETFwAJAkTD3nroPKO3+HIApnYV8zdFQf73xpqk/lw5CVGgsABR6F9295VpXqQcAWNJZKBAySqn3b1g59UHpIESFxAJAoTZnTe1SA/p36L7jmyhXnRrGFRtvqn5SOghRobAAUGjNu6uuWpluDTf5oTy1uIaez22DKaxYACiULrp323DXdf4EYLR0Fgoy9Ybtqjnrb6neL52EyGu8G5pCZ9a9L5Rq1/lfcPGnPtNjM4b70JKfvFwmnYTIaywAFCo3rF1rJtzETzVwgXQWCo1ZHR3GL25Yu5YTJBQqLAAUKu/UT/43QF8jnYPCRWtcsa9+yv+VzkHkJd4DQKExd83Wm45s8UtUGFp9qubmqfdJxyDyAgsAhcL8e+tma9f9I4C4dBYKtS7tqos23jL1eekgRH3FAkCBN3fNy0MMGC9qYJR0FoqEvbYRO3f9ion10kGI+oL3AFCg3bB2ralg/DcXfyqiM9Ju5ue8KZCCjgWAAu2d+sn/BGCxdA6KFgX9vrcbJyWlcxD1BS8BUGDNvWfLNUqr34A/xyRDQ+EDNSun/Vo6CFE++MFJgXTx918e52SNzQAqpbNQpDWZLmY8fcu0vdJBiHqLlwAoeJLayGaN+8HFn+T1dwz1P7wfgIKIBYACZ/7Q2tsUcIl0DqJu+qJ9DZO+JJ2CqLd4CYACZe7q2vOVoWsA2NJZiI6RVYYxf8OK6melgxDligWAAmPB6rrytOH+WQFnSWchOolXEbNn1nxiUqt0EKJc8BIABUZGuau5+JOPnanS6f8nHYIoVzwDQIEw756t10PjV9I5iE5HAVdtuGnaQ9I5iE6HBYB8b8G/vdQvk7BqAYyUzkKUg31K6+oNN09vkg5CdCq8BEC+l4lb3wMXfwqO4VD4Z+kQRKfDMwDka/Pu3nIZlHpYOgdRL2ntYtnGW6Y9Jh2EqCcsAORbs+98pdKyO7cCGC2dhaj31Bu2q6atv6W6TToJ0cnwEgD5lmV1/jO4+FNg6bFpw/0H6RREPeEZAPKl+ffWzdeu+zT4M0rB5irDmMsNgsiPeAaAfOeGtWtN7bp3gYs/BZ/huu7dfFYA+RELAPnOO/VTPgtghnQOIi8o4Nx9jVNWSOcgOh5/wyJfmf39rUMtBzug0U86C5GHmjTcSRtvmnFQOgjRUTwDQL5iZvFdLv4UQv0B4x+lQxAdi2cAyDcuWlM7z4V+Bvy5pHDSWul5G1dO3yQdhAjgGQDyiQXJpywX+m5w8afwUkpjNW8IJL9gASBfyAwb9EkA06VzEBWWmvlO/ZSPSacgAvjbFvnAgtV15RnDfQXAMOksREVwADH7rJpPTGqVDkLRxjMAJC5juF8DF3+KjqEqnfk76RBEPANAouas2TzSgLkLQKl0FqIiSpkuJj59y7S90kEoungGgEQZ2vwOuPhT9JQ4CqukQ1C08QwAiZm7uu4cZbgvgkWUosl1YZy36abql6SDUDTxg5fEKMP9LvgzSNFlGNDflg5B0cUzACRi3t0vXwRlPC2dg0iaVvqSjSun871ARcffvkiGMvicdCIASvO9QDJYAKjo5t9TtwzAxdI5iPxBXzR3Td2l0ikoelgAqOi06ySlMxD5iQH3DukMFD0sAFRUc+/Zcg2Umi2dg8hPNDB33t1bLpPOQdHCAkDFo7VSUEnpGES+pNQd0Jo3ZlPRsABQ0cy7t/Y6aJwjnYPIp2bNv6f2CukQFB0sAFQ8Gl+TjkDkZ1rrb0pnoOhgAaCimLOmdimA86RzEPmaUrPnra5dKB2DooEFgIrCAL4hnYEoEAz9dekIFA284YQKbu49W+YorTZK5yAKCtfFvE23TON7hgqKZwCo4JSL26QzEAWJYagvS2eg8OMZACqoi+59+VzXNV6UzkEUMFrDnb7xphm10kEovHgGgArKcdWt0hmIAkgpmH8nHYLCjWcAqGDmrNk80oD5OgBbOgtRAKUNwxz7zIop+6SDUDjxDAAVjKHMz4OLP1G+Yo7O3iwdgsKLZwCoIOb9YEcFMpk90OgnnYUowBrLytzRj31kRrt0EAofngGgglCZzMe5+BP12YC2duMj0iEonFgAyHM3rF1rao3PSucgCokvIKn5WU2e4w8VeW5fw+SrAZwpnYMoDBRw1vyhtZdL56DwYQEgz2noz0hnIAoTDcWbAclzvAmQPHXh6q2TTQN14M8WkZe0cpxJGz5zzi7pIBQePANAnjINdTO4+BN5Tbmm+WnpEBQu/KAmzyxYXVeeNdy3NFAlnYUodBSaO1XXyBdXnNchHYXCgWcAyDNpw/0wF3+iAtHoF3diN0rHoPBgASDPGMBN0hmIwkwpjteSd1gAyBMXramdp4Fp0jmIwk3NnH/3llnSKSgcWADIE1rpT0hnIIoEpfheI0/wJkDqswWr68ozhrsPQLl0FqKwU8DhlNE1gjcDUl/xDAD1WcZwPgQu/kRFoYGqhJO4QToHBR8LAHmApySJikqB7znqM14CoD6Zc++WaYartkjnIIoax8WUP90ybbt0DgoungGgPlEuf/snkmCa+Jh0Bgo2FgDK24LkU5YC/ko6B1Ekaf2hG9auNaVjUHCxAFDessOGLAIwVDoHUTSpEW83VF8inYKCiwWA8qbhfkg6A1G08T1I+eNNgJSXWfe+UJpw4wfA8T8iSS1uqnXYpi/OTUkHoeDhGQDKS4lOXAMu/kTSKlVJ5eXSISiYWAAoT5qnHol8QPG9SHniJQDqtTn31Q0wMu4+ADHpLESEtGsbwzd9srpROggFC88AUK+pjHsjuPgT+UXMSOvrpUNQ8LAAUK8pgKccifxE8TIA9R4vAVCvzL1r2xhlOq+DPztEfqK1Y47b+Jkpb0oHoeDgGQDqFdX95D8u/kT+omC6N0qHoGBhAaDeUfigdAQiOhGnAai3WAAoZ3Pu3TINwFTpHER0UtPn3VVXLR2CgoMFgHJmuur90hmIqGfK0NdJZ6DgYAGgnGngWukMRNQzrTTfo5Qz3sxFOblwzUtjTVivS+eg42gXuqMFTnsj3PbDQFcKblcHdFc7dFcH3HQH0NUB7WS6vzzd2f19rgOdTQMAlBUDjO6nyqpYovv/mjEgXgIjVgoVL4WKl0HFS6DipTDKqmCWDYAqrQQUf4fwG9Nyxz/9qRl8r9JpWdIBKBgMZV4PLZ0iutxUK9zm/XCa98NtbYDb1gS3val70ddun177aBEAAJ1+7zNlnFN9o2HAKK2CUdYfRnl/GBUDYfYfDqNqKIySij5lovxls8ZVAO6UzkH+xwJAOVHauBZsAEXhtjXBqd+DbNM73Qt+037org7pWCdy3e4i0tYEHHjvv1LxUpj9hsPsPwxm/+GwBo+BKusnkzNilMK1YAGgHPASAJ3W3DUvD1Ew3gFgSmcJHa3htByEU78XzsE3kTn0BnR7s3SqgjAS5TAHjoQ5eAzMQaNhDRgFmPyRKgDHNmLD1q+YWC8dhPyNZwDotJQ2r4bS/KT2iJtqQfadV5Dd9wqy+1+FznRKRyoKt7MN7ts7kXl7Z/c/sOOwh58F68j/eNnAM2bGyVwB4MfSQcjfWADotJShr9U8+58/reE07EXm7V3IvrMLzuH9AP9AgUwXMntqkdlTCygFs/8wWMPPhj1iIsyBowDFE5R5U7gOLAB0GnyH0SktWF1XnjHcQwAS0lmCxjl8AJk9dci8sbn7OjnlTJVWwh41BfboqbAGjWYZ6L1UWZk7+LGPzGiXDkL+xTMAdEoZw70cXPxz5hw+gMybW5F5cyvcNj6ePV+6owXpXX9CetefYFYMhDVmGmJjpsOoHCwdLShKOtqNJQB+Ix2E/IsFgE5JAdfxZPWpaTeL7Ns7kX7leWQPvCodJ3Sc1gY4tevRVbse5oARiE04H7ExMwDLlo7may5wHVgA6BR4Xo16NOveF+wSN35IA1XSWfzIbalH+rU/I/Pan+F28UxrUdlxxEZPQ+zs2TD7DZNO41eN9oH6oeuTC7PSQcifeAaAelTqxOa6iov/e2iN7L5X0LV9A7IHudmamEwX0q++gPSrL8AaMh7xyfNgDT+L9wq814CuwYMuALBROgj5EwsA9ciFWiqdwTdcF+k3X0bX9g1wDx+UTkPHyB58DdmDr8GoGoL4xDmwx54DZfKjDQAMpZaCBYB6wHcJ9UgrLI3671M604X07ufRtWsTdEeLdBw6BffwQaSe+y26atcjPnEu7AnndT/nIMKU0ssArJLOQf4U9c936sFFd/55sGvb+xHVJ0Y6DtJvvISuLU/A7WyTTkN5MOJliE2eh9jZc6J8RsA1Mplhz3zu3EPSQch/IvuuoFPTtr0MUVz8tUbmrW3o3PwoZ/cDzu1qR+fmx5De9SziUxcgNv7cKD690NCx2CIAP5MOQv7DAkAnpYFoXf/XGpk9tejc+gTc1gbpNOQht+Nw96WBHTVITF8Ee9SUSN0sqLW7FCwAdBIsAHSipDaA2sXSMYrFad6H1Au/h3PoTekoVEBuSz06Nvwc5pCxKJl1RYTGB9VSaK2gFLf0oPeITg2mnM1dXXu+MvRz0jkKTadT6Nz6JNKvPMu9+aNGKcTGzED83GUw4mXSaQpOu8bMjbdUb5bOQf7CMwB0AkNhaaiXQ62RfvUFdL68DjrdIZ2GJGiN9Bubkdm3C4kZixEbPyvUlwUMw1kGgAWA3iNyd8TQ6Wno0F7/d9sa0fbkD5F6/ndc/Am6qwOp536LtnXfh9tSLx2nYDT39KCTCG/lpbzMuveFqoQbr0fYzg5pF127nkXnlseBbEY6DfmQMi3Ep12K+KT5YTwbkEHMHljziUmt0kHIP8L1IU99VqITF2voUP1cOIcPIPXs/8JpeEs6CvmYdrLo3PwYMnu3oWT2dTCrhkhH8pKNrvR8AH+QDkL+wUsA9B6u1pdIZ/CM1uja/gzaH7mHiz/lzGl4C+2PrkHX9g2hujlUG0Z43tvkiVD9pkd9p4AF0hm8oLs60LHpl8jue0U6CgVQ99mAR5HZ/wpKL/wAjJIK6Uh9plx3gXQG8pfQXeii/B25/t8AwJTO0hfZA68htemXcFO83El9pxJlKLnw/bCHnyUdpa+y2Uxi4LOfO4sPtSAAvARAx0g4JZcgyIu/dtG59Um0P/UjLv7kGd3Zjo4//hdSL/4ecF3pOH1hWbHUfOkQ5B8sAPQuheBe/9edbWh/4ofoqn0qVNdtySe0RnrXn9D+1P3QXcEdH1UagX2Pk/dYAOhdrtILpDPkw2naj9bH7kWWW/lSgWUPvoHWR1bDaXxHOkqe1ALpBOQfvAeAAAAL/u2lfpmEVY+AXQLI7K1D6k+/hs6mpaNQhCgrhpILr4d9RrV0lN5y7M7soPVfmNksHYTk8QwAAQDSJWawrv8fGfHrqPkFF38qOp1No6PmF+jc/FjQLjmZ6bg1TzoE+QMLAAEADNe4WDpDrrSbRcfGtUH88KUwOVpCN66FdrPSaXKmDN4HQN24DwABADTceUG4IqSzaXQ881Nk978qHYUIAJDZUwvd2Y6yiz8E2HHpOKenMVc6AvmD/z/xqeAuu/OVeIvdeRiArz+93M42dKz/LzhNQb0Bi8LM6DcUZQs+AqOkUjrK6XRVZhJVf/jcWV3SQUgWLwEQms3OWfD74t/WhI5193HxJ99ymw+gfd19cFobpKOcTrzF6pgpHYLksQAQTANzpDOcitO8D22P3xuED1aKOLetqbsENO+XjnJqSvn6PU/FwQJA0PBvAXCa96PjyR9Dd7ZLRyHKie5sQ8eTP4LbfEA6Ss+U4dv3PBUPCwABwIXSAU7GbTmE9qd+DLeLiz8Fi9vVjrYnf+jfEqBdjgISC0DUzb1r2xgAI6VzHM9tqUf7Ez+E7myTjkKUF93V0V0CDh+UjnISasT8e+tGS6cgWSwAEacsx3e//bst9Wh/8odwufhTwPm5BGjX9d17n4qLBSDiNPRU6QzH6v7AvJ9P86PQ0J3taFvvx0tZylfvfSo+FoCIU1pNls7wLq3RsemX0Ck+rpzCRXe0ILXpV9IxjqMnSicgWSwA5JsPgeyhN5Dd94p0DKKCyO57xW9PrJwkHYBksQDQQOkAR6VffUE6AlFBpXc/Lx3hXQoYIJ2BZLEAULl0gKOc+r3SEYgKyql/SzrCu7Tyz3ufZLAAUKl0AACA1nA7DkunICooN9XsnydYapRJRyBZLABRp9EpHeEoxR9HCjnlr+evpaQDkCx+4kadQrN0BACAUlBlVdIpiApKlfUDlG9KgD/e+ySGBSDqlPbNh4A50HcbEhJ5yhwwQjrCsXzz3icZLAARp6F8M3dnj6qWjkBUUPYZ/tl7R0Hvks5AslgAIk/XSic4yh5+FpQVk45BVBiWDXvYBOkUx1B10glIFgtAxBkutkhneJdlwxrupw9IIu/Yw88GLFs6xrtcqK3SGUgWC0DEWWb8KQCudI6jeBmAwso+w1c/207WMddLhyBZLAARt37FxHoAL0rnOMoaORHKtKRjEHlKGRasEWdJxzjWc899ZnKDdAiSxQJAgNIPSUc4StlxmEPHS8cg8pQ1fAKUnZCO8RcavnnPkxwWAILpqPsBONI5jrJH++dOaSIv2KOnSUc4VtZVzo+lQ5A8FgDC07dM2wuNh6VzHGWPmgzwMgCFhWXDGuWrB+89uOmmc96WDkHyWAAIAOAa7vekMxyl7ATsEWdLxyDyhD1ioq/GWxVwp3QG8gcWAAIAbFo54wkAj0vnOMoeM106ApEn7DF+Ov2v/rDhpmnrpVOQP7AA0LuUUl+CT0YCrRET/XXTFFEelJ3onv/3B9eF+oZ0CPIPFgB614aVU1+GxmrpHACgTAvWyInSMYj6xDrDT/ez6O9tuqn6JekU5B8sAPQedkn5l6G0L7YItcfOkI5A1Ccx/1zK2uGm2vjbP70HCwC9x/qPjesE1EcBpKWz2MMmwCjlI4IpmIySSlhDz5SOAQBpKHx40xfnpqSDkL+wANAJalZOewHQX5XOAaVgjztHOgVRXuyxMwClpGMAWn2l+z1N9F4sAHRSNSun/Ts0fi2dIzZ+lj8+RIl6KeaD8qqBh2puqvbNiC/5CwsAnZxS2u7KfgIar0vGMMr7wxo8RjICUa+ZA0bCqBoiHWOPto2/gVJaOgj5EwsA9Wj9F2Y2a61uhPD9APb4cyUPT9Rr9viZ0hEyWum/2vTJ6kbpIORfLAB0Shtvmfo8tPqKZIbYGVO5JwAFh2kiJrz5jwZu3bhy+ibREOR7LAB0WjU3VX9P9H4Ay+YDgigw7FFToGKlcgE0Hty4cup/yAWgoGABoNM7ej8A8JpUhNiZs6QOTdQrsfHnSR5+jxszPsrr/pQLFgDKyfovzGyGwo0AuiSObw4cBVP+piqiUzLK+8MaOk7q8LzuT73CAkA5q1k57QWlIHY/gD1O/MYqolOKjT9PbGxVK/wdr/tTb7AAUK9sWDlN7H6A2LiZgMEfWfIpZcAeLzT7r/HgxhVT75I5OAUVP02p16TuB1CJMtgj+IAg8id75EQYJZUSh36T1/0pHywA1GuS9wPEJpxf7EMS5cSW+dnsUlq/n9f9KR8sAJSXmpXTXtDAl4t9XGvYBBiVg4p9WKJTMioGwh42QeDI+tYNN09/UeDAFAIsAJS3jTdNuxPAr4p6UKUQO/vCoh6S6HTik+YW/eY/Bf3Lmpum87o/5Y0FgPrE7sx+EkW+HyA+7lyoeEkxD0nUI2UnYI8t+s1/r6aM9CeLfVAKFxYA6hOR+wEsmyOB5BuxCedBWbFiHrJLaX3jiyvOO1zMg1L4sABQn3XvD6C+WMxjxifO4WOCSZ5SiE24oMjHxN/yuj95gQWAPLFh5dS7Af3jYh3PKO0HayRHAkmWPWoyjPL+RTyi+mnNymn3FPGAFGIsAOQZN9V2E6BfKtbx4hPnFOtQRCcVP7t4P4MK2NppdH6qaAek0GMBIM9s+uLclOuayxVQlGuT1pDxMPsPK8ahiE5g9BsKc8jYYh2u1TH08hdXnNdRrANS+LEAkKc23VK9W2vjIwCKsitZ7CyOBJKMxKS5xTqUhsJHN62YvqNYB6RoYAEgz9XcXP07Bf3dYhzLHjcDKlFWjEMRvUvFS2GNnl6cg2n8U83KaSLP36BwYwGgghg+cMfXATxe6OMow5J+/jpFUHzCBVCmVfgDKTxlH6y/rfAHoihiAaCCeGD5cidr4cMA3i70seJnXcCnBFLxGAbss4qy7/9+Q5kfWp9cmC3GwSh6+KlJBfPsp6YdgHY/ACBdyOOo0krYY2cU8hBE74qNm1mMp/5llGHc8MyKKfsKfSCKLhYAKqiam2f8CVp9pdDHSVRfwo2BqPCUQnzSRUU4kP7ihhXVG4pwIIowFgAquJqbp/47NH5RyGMY5QNhj55ayEMQwR4zDUblwIIeQ0P/jA/5oWJgAaCicDtbPwbghUIeI169gGcBqHCUQmLKJQU+BjaXl2lu9kNFwQJARbHpi3NTyjDeD+BAoY5hVg2BPXJSoV6eIs4eNQVG1ZBCHuKA6eDqxz4yo72QByE6igWAimbDiuo9rovrUcAnB8anLuBZACqI+JSCXvvPaKWXP33LtL2FPAjRsVgAqKg23TJtI7RaUajXN/uPgDVsQqFeniLKGnE2zAEjC3cArW7euHL604U7ANGJWACo6GpunvpjKP3vhXr9xLRLC/XSFFHxAl77V1r9a83NU+8r2AGIesACQCJGDNhxK4CHC/Ha5sBRsIaML8RLUwSZw8bDGjy6MC+u8Jh18FDBx2SJToYFgEQ8sHy5k80kPghgWyFeP15d4Lu1KTIShftZ2mmnsjdypz+SwgJAYp793Fkt0O71UGj2+rWtQv7WRpFRwLNJLYYyrl//hZme/+wT5YoFgETV3DxjJ4DlADz/LaiQ120pGuKFuZ/EgdIffGZldUHOfhHligWAxNUM2P5kNpP2fOcza/hZMAeO8vplKSKsQWfAHn6W56/rpLN31gzY8ajnL0zUSxyYJhGTvrNuoJFxL4VWizTcqwE1rKyyCvGSUk+P4xx8A21P/MDT16RoKHvfxzw//d/V2YH2w4cBoBHAExp6nbL1g9u/sYwP/aGiYwGgopny949Ua21cCa0XAeoSAPax/15BoaL/AFixmKfHbV//E2T3veLpa1K42SMnovTiv/b0NbPpNFqbGqGhj/9XLoCXAKwzoB6qSy6qAdQJX0TkNRYAKphZyQdL21XsfYa6Ku6TAAAgAElEQVQ2rnShL1fAac/HK6VQOWAQTMvyLIfbfACtj6wGND9TKQdKoXzZTTD7DffsJZ1sFi1NDdCum8uXHwKwHlAPdSXw29e+uviwZ0GIjsECQJ46O7luvAFnkYJxFaAXA4j39jUM00TVgEFQhne3qKQ2/QrpNzZ79noUXvb4mSidfb1nr+dqFy0NDXCdvO5zdRTwJ63woFZ63Y7blr7oWTCKPBYA6pOxyacSJXDmA+4iBVyjAU+exmNZNioGDITyaF9/t6MZbQ9+D9rlyDX1TJkWyq/4PIyyfp68ngbQ2liPbCbjyesBeENBPQal1zmJ1CM7v3JNq1cvTNHDAkC9Nin5h7GAsURBLQLUMkBXFOI4diyOiv4DPHu91Et/QHrHRs9ej8InPnk+Eucs9eS1NID25iakuzo9eb2TSAG6Bkqtc7T+7a7k0h2FOhCFEwsAnd7ateakHVXnGC6u0lBXAjgXRfrZSZSUorSyypPXcrva0frgvwGZgj2MkAJM2QlUXP0FqJg3kygdrYfR2dHhyWvlQgGvucBDCsaDBhqfrksuTxft4BRILAB0UhO+8/DgWMZaoDWuAnAVAG/OieahpKISJaVlnrxWV90f0bllnSevReGSOGcJ4pO9eeRvqr0NqTbRs/PtgHpKw30wC+fh3cnL35IMQ/7EAkDdkkljkjFnptJqkdK4SgNz4KONojzbI8DJouWhf4PuaOn7a1FoGCWVqLjybwHLPv0Xn0ZXKoX2Ft/t8LsNwIOAsW4ozPV8/gABLACRVp18ZIBWxvu6N+PRVwHwbu7JYwpAWb/+iMUTfX6t9CvPI/XC7/oeikKj5IJrETtzVp9fJ9PVidbmJg8SFVQDgCc19DoTsd/VJRfulw5EMlgAIubs5LrxpnKvgtZXnmwzHl9TChX9+sOO9Xqy8L20RuvD/wG35ZA3uSjQjMpBqLj8s4Dq2wmvTDqNtuZG6GDtN+EA2KygH3INPLjjtiV/5iZE0cECEHKzkg+WdqBkroZ7lQKuA3CGdKa+UMro3i3Q7ltvyby1DR3P/MyjVBRkpRd/CPbIvk2vZrNZtDbWB23xP4EGDirgUaXwYGdcPcZNiMKNBSCEvNiMx88MZaBiwCCYltmn1+EWwWQNm4CyhX/Tp9dwHQctjfVwc9vlL0iyCniWmxCFFwtACEy48+G41WQvgHavUMDlgDpTOlOhmaaJiv4DYZj5lwCntQHtD9/FzYGiyjRRsewzMCoH5f0SruOgtakBjuN4GMyv9KsaeBjK+H22f2b97s9dznnagGMBCKhZ975gd+xvvBIaNwC4AkCldKZiM00LFQMGwDDyLwGdmx9D1/ZnPExFQRGvvgSJ6Yvy/n7tujjcmPcWv0HXoqAf0sADpcMH/v7FFed5ttUhFQ8LQMBUJx8f7ULfAuBvAAyVziPNNC1UDhiY93MDdDaN1oe+B53iWGCUqNJKVFzxeSgrvydPutpFa0MjHIfrHqD3K+BHhoW7a7+5dK90GsodC0BATL3j8cmO434VUB9EkO7cLwLTslHZf0DeJSD95hakNj7gcSrys9L5fwX7jOq8vldrjdbGBmSzXPyPkwHwUwf6n7gtcTCwAPjc2cmnBhnIfEsBNwPw7hm5IWNadveZgDwfHtT+xP3IHnzN41TkR+aw8Shf+LG8vldrFy1NTXAy3GX3FFwA/wPb/cr2byzbJx2GesYC4Fdr15qTt1d9Dlr9PYBy6ThBYNkxVPQfkFcJcA4fRNsjq4Hw3clNx1IGKpbdDKNfHlfPtEZLcyOyaS7+uVGtUPpb2yc334Xly6Nwl2TgsAD40OTko1MB48eAPlc6S9DYsRjK++VXAjr//Ad07eTTAsMs36f9ae2itbmJi38eNPC8Zaq/qf3W4u3SWei9fLPXO3WbnHz8I4B6lot/fjLpNNqaGqF173+Tj0+7FEZJQZ5sTD5gJMqRqF7Q6+/TWqO1ib/550sB5zuO/vPk2x/7vHQWei+eAfCJUf+6saSypfU+DfV/pLOEgWXZ3ZcDenljYPr1l5D6068LlIoklc65AfbY6b36nncXf17z98p/pWB/+o3kwk7pIMQzAL4wMfnYiPKWtj9y8fdONptBS1Njr3dni409B+aQsYUJRWKswaNhj5nWq+/R2kVLYwMXf299uASZp6qTTw2TDkIsAOImJf8w1gD+qIDzpbOEjZPNoLWpAa7bi/uPlELJrCuAPEcKyYdMEyXnXQ304r4Q7bpobWyAw1G/QrjQRWbj1DueCP2OpX7HTzlBZycfnaRg1gCYIJ0lrJxsFq2NTb06E2D2G4b4lIsLmIqKKTHlkl7d9e+6Dg43NiCbjeQOf8UyznGcP0684w8TpYNEGQuAkOrk46NNqEcAjJDOEnaOk0FrYz2cXmzZmpiyIL9RMfIVs98wxCfnXuYcx0FrY2NUt/cttpGGYz4x8Y5Hx0kHiSoWAAFTv71uqAu9HsAY6SxR0f3B3otTuqaJ0guv7/Mz4kmQMlAy+1ogxwdGdZ8tauhVUaQ+G2k4eHx68tEh0kGiiJ9uRTY2+VTCyTi/AcDWW2Su231TVyad20PMzP4jEJ80t8CpqFDik+fBHDAyp6/NpNNHHunL/WqKT52ZgfrNhDsfDtVjy4OABaDISpD5T0DNkc4RVVprtDU1Id2Z2xRSfPr7YFQOLnAq8ppROQiJqZfm9LXprk60NTdCa13gVHQKc2ON1j3SIaKGBaCIJt/+6CcAfFg6R9RpaLQfbkJXR8dpv1YZFkpnX9erO8hJmFIoueBawDz9ozO6Uh1oa27i4u8DGvho90ZoVCwsAEVydvLRSdDqe9I5qJsG0N56GKn2tu6/OQVz0BmInXVBUXJR38XPvhDW4NPcXqOBVHsr2lsOFycU5UivnnzHY2dJp4gKFoBiSCYNE+r7AMqko9B7pdpa0dbSfLoOgMSMJTDKBxQlE+VPlfVDfPqiU36NhkZ7SzNSbW1FSkW9UA5H/xjJJNemIuAfchFMxpyVAOZL56CTS3em0NpYD32KvQKUFUPJBdfwUoCfKYXSC66FsmI9fonrumhtbERXZ6qIwah31JwpmPtp6RRRwAJQYNXJRwYA6g7pHHRq2UwGzY31pxwTtIaOR2z8rCKmot6InXkerGE9by7nZLNoaazn1r4BoIHvTPrOuoHSOcKOBaDANIzbAfDccQBox0FLYwPSXT1PCJTMXAZVUlnEVJQLVVqJklM85jeT7uoe83M45hcQ/VVaf0M6RNixABTQxDseHaeBFdI5KHdaa7Q3NyHV0X7yL7DjKJ17Ay8F+IlSKJ39fsA++Rh5Z6oDrU0c8wsefUt18vHR0inCjAWggAxHfRmALZ2DekcDSLW2oL2HmwOtIWMRn8RbOvwiPnk+rGHjT/wXuvtmvw7e6R9UMQfurdIhwoy/xhRIdfKpYS4yrwNISGeh/JmWjYp+/WAcP1Puumh/4j5k6/fKBCMAgDlgBMoXffqE7X4dJ4v25iY+0Cf4Ujb02C3JpQelg4QRzwAUiIv0J8HFP/CcbAaHGxqQOf6uccNAyZz3Q/Vw2pkKT1kxlM654YTFP9PViZaGei7+4VCShvFx6RBhxQJQCMmkAahPSMcgb2jtovVwMzpaW97zz43ygUjMvEwoFZXMuhJG5aD3/LNUawtaubNfqCjoT3NfgMLgH2oBTMb8SwGMlc5B3ursaEdLY8N7HhgTO3MW7DHTBFNFk31GNezxM9/9e+26aGlq6PnmTQqycdWYs0A6RBixABSEs1w6ARVGNpNGS0M9Ml1/eaJgyflXwyjtJ5gqWlRpJUrOv+bdv890daG54RCyac73h5ULdYN0hjBiAfDa2rWmhrrm9F9IQeW6LlqbG9HRchhaayg7gZK5H+BoYDEohdI5H4CKl0AD6GhtQWtz4yl3caTg08D1WLvWPP1XUm+wAHhs0raq2QoYIp2DCq8z1YGWhkPIZNKwBo9BvPoS6UihF6++BNaQcXCyGbTUH0InT/lHggKGTNoxgE/k8hgLgMcUDN4VFiGO46C1sQGp1hYkpi6EOegM6UihZQ4YiUT1QqQ62nG4oR6Ow7v8o0S5Lj9bPcYC4DnNH9IISnW043BTExKzr4OyOf3pNWXFEL/w/Wg53ITUcdMYFBn8bPUYL1p6aMJ3Hh5sp639iGKx0hpWuhV2ZyOsdCvMdBsMpxNKOzDcnh+wEzrKgFYGwDE0bykFpV1AR+dav2vY0MqEayXg2OXIxiqQSQxANlYR1ftNXNM2RtR+Y9EB6SBhYZ3+SyhXdtq+DNDRWfy1ht3ZiJLWvYi174fh8C5sgK2avGE6R4pzuhXAoXf/uTbj6Cwbhs6KUcgkBkSpDBhO1l0C4L+kg4QFC4CnInL6X7tItL6NsqZXYGbapNMQRYpyulDS8iZKWt5ENlaGjn5nobNiFKAi8LuHxmVgAfBMZKpjwa1da07e1u8AgFA/wzretg/l9bUws6nTfzERFYVjl6Ft0FR0lQ2VjlJoTdunNA/G8uV8rrMHIlAZi2PStqrZCPHir5wu9Nv3HKr2P8/Fn8hnzEw7qvY9i6p9z4X9Ulx/jgN6hwXAI2Ee/4ulGjBw7x8Ra98vHYWITiHevh/99/4RdqpROkrBcBzQOywAngnn9f9469vo984mGNlO6ShElAMzm0L/d2qQaH1LOkqhhPKzVgLvAfBAWMf/Sg+/jvJDtQA40kYURK2DpyFVNU46htc4DuiRUC1YUrrH/8L1ZxlvfRvlh7aCiz9RcFUcqkVJ617pGF47Og5IfRSqRUtOuE7/26l6VB18SToGEfWZRsXBlxFL1UsH8ZbmZQAvsAD0VfcTqhZLx/CKcrpQdeDFSO24RhRq2kXlgRdhOKG6j2cZnw7YdywAfRS28b+qA5thZLtO/4VEFBhGtgsVB1+WjuEljgN6gAWgj8I0/hdvexuxDt5XQxRG8fYDiLftk47hGY4D9h0LQJ+F4/q/0g7K6+ukYxBRAVXU13Y/VCkcQvHZK4kFoA8mfOfhwQBmSufwQqJlD0zO+hOFmpFNId4SmqmAc6d+e13o9z4uJBaAPgjN+J/WKG1+VToFERVBWfMrUOF4XDXHAfso+IuXqHCc/o+lDsLMdEjHIKIiMDMdsMMyFshxwD5hAchXiMb/Ei2h3TKUiE4iEZ7NgTgO2AcsAHkKzfifdhHnnf9EkRJv3w+E4zIAxwH7gAUgT2EZ/7O7DkO5WekYRFREys3C7mqWjuEJjgPmjwUgb2G5/h+Sa4FE1Ct2Z4N0BK+E4rNYAgtAHsI0/memW6UjEJEAKzzvfY4D5okFIA+hGf8DYGXapSMQkQAz3SYdwSscB8xTKBax4gvH6X8AUNz8hyiSzDA9HIjjgHlhAeitEI3/AYDhZqQjEJEA5YTq5l+OA+aBBaCXQjP+d5R2pBMQkQQdqgLAccA8sAD0UljG/44KyZagRNRLYXvvcxyw91gAei081/+JiEKEn829xALQC2Ea/yMiChmOA/YSC0AvWBnzcvDPjIjIjwwno5dKhwgSLma9oHS4rv8TEYULL9H2BgtArtauNQG9SDoGERH1aCnHAXPHApCj0I3/ERGFD8cBe4EFIEdhG/8jIgojjgPmzpIOEBy8tkTBZ5eVoXz0WJQMHgS7pBSvvWMDXR0w2g4ADa9BdfHZEBR4lwG4TTpEECjpAEEw4TsPD7bT1n6E8IzJkN2/k45ARWCWJDDk3PNRNW48oP7ytq99Lf6XL9Ia6tAuGG8+C5VOCaSkYjs44WrpCIXgmrYxovYbiw5IB/G70C1ohcDxPwqy0iFDMf7Ka1E1/sz3LP4nUAp6yEQ4M5dDV3CcmgKL44A54qKWA47/UVAlBg3GqPctgZlI5P5NVgLO1Cuhy4cULhhRQfGSbS5YAE6H438UUKZtY9QlC2FYeUxFGRacSYsBM+Z9MKLC4zhgDlgAToPjfxRUA2fMhFVamv8LxMvhjp7lXSCi4uE4YA5YAE6D438URLGKCvSfOLHPr+MOmwqUVHmQiKi4OA54eiwAp8VrSRQ8g889D8rw4AyoYcAdzV+kKJD42X0aLACnwKf/URCVDB6MijNGe/Z67qDx0JXDPXs9oiLh0wFPgwXgFDj+R4GjFIace/6px/3y4I6d7flrEhUYxwFPg4vbKXD8j4KmcsxYlAzxfnxPVwyFHjje89clKixewj0VFoCecPyPAkYZBgadU7grVs6Y2YDiZBUFCscBT4EFoAcc/6Og6T9pMmIVlYU7QKIC7ojqwr0+kfc4DngKLAA94PgfBYkZi2Pg1BkFP457xixoqxe7ChIJ4zhgz1gAesRrRxQcg6ZPhxkvwq59Zgz6DA7GUKDws7wHLAAnwfE/CpJYRQX6TZxUtONxcyAKGI4D9oAF4CQ4/kdBMnimR5v+5Mow4IzhZVUKDI4D9oCL3Elw/I+ComTwYFSM9m7Tn1zpgdwciIKEl3RPhgXgeBz/o6Ao0KY/ueLmQBQgHAc8CRaA43D8j4KiUJv+5IqbA1GAcBzwJFgAjsPxPwqCQm/6kytuDkRBwXHAE7EAnIDXisj/Cr7pT664ORAFBz/bj8MCcIzpyUeHgON/5HPF2vQnV9wciAKC44DHYQE4RlrhMvDPhHyuaJv+5IqbA1EwcBzwOFzsjsHxP/K7Ym/6kytuDkTBwEu8x2IBOIrjfxQARd/0J1fcHIiCgeOAx2ABOILjf+R3Upv+5IqbA1EAcBzwGCwAR3D8j3xNeNOfXHFzIPI7jgP+BQvAu3htiPxLetOfXHFzIAoAftYfwQIAjv+Rv/ll059ccXMg8jmOAx7BAgCO/5G/+WbTn1xxcyDyN44DHsFFDxz/I//q3vRnunSMXnNHncvNgcjHeMkXYAHg+B/5WvemP3HpGL1nxbk5EPkZxwHBAsDxP/Itv276kytuDkQ+xnFAsABw/I98y7eb/uSKmwORj3EckAUAvBZEfuT3TX9yxc2ByMci/9kf6QLA8T/ypYBs+pMrbg5EPhX5ccBIFwCO/5EfBWXTn1xxcyDyqciPA0Z68eP4H/lN0Db9yRU3ByJ/ivYl4OgWAI7/kQ8FbtOfXHFzIPKnSI8DRrYAcPyP/Caom/7kipsDkQ9FehwwsgWA43/kN4Hd9CdX3ByIfCjK44CRLQBRv/ZD/hL0TX9yxc2ByIciuxZEsgBw/I/8JvCb/uSKmwOR/0R2HDCSBYDjf+QnYdn0J1fcHIh8JrLjgJFcBDn+R74Rsk1/csXNgchfonlJOHoFgON/5CNh2/QnV9wciHwmkuOAkSsAHP8jvwjrpj+54uZA5CORHAeMXAHg+B/5RWg3/ckVNwciH4niOGDkCkBUr/WQv4R9059ccXMg8pHIrQ2RKgAc/yO/CP2mP7ni5kDkH7OiNg4YqQLA8T/yg6hs+pMrbg5EPqGiNg4YqcWQ43/kB5HZ9CdX3ByIfCNal4ijUwA4/kc+ELVNf3LFzYHIJyI1DhiZAsDxPxIX0U1/csXNgcgHIjUOGJkCwPE/khbVTX9yxc2ByA+iNA4YmQIQtWs75C9R3/QnV9wciHwgMmtFJAoAx/9IWuQ3/ckVNwcieZEZB4xEAeD4H0nipj+9w82BSFhkxgEjsShy/I8kDZw+w5eb/rhwAbjSMU7EzYFIXDQuGVvSAQpu7VoT2zj+RzJiFRXoP3GidIx3uXDRsKcB+/e1oSWTgLvrBcRK44gNGQNr9DQowx934bvDpsLYvw1IHZaOQtHUPQ64fLkjHaSQQl8AOP5Hkvyw6c/xi75jxgFUASagtUJnexqdr78C441d/ikDRzYHMnc8LpeBoqz/pB0DLtgBbJIOUkihLwDd439aOgZFkOSmP6da9Hv8Hp+VgaObA6mWfUU/NtGRcUAWgGCLxrUc8hmBTX/yWfR7fC2flAF37GyYW38LaJZ4KrrLANwmHaKQQl0ApicfHZLh+B8JKNamP14u+j0eQ7AMHN0cSNW/WtDjEJ3ErKnfXje09huLDkgHKZRQF4C0wmVKR2PSgfyj0Jv+FGPR7/HYAmXAGTMbVsMbgA71/VjkP0fHAX8iHaRQQl0Ausf/eOqQiqsQm/5ILvo9ZipWGTiyOZDx9hbvXpMoJ/oysAAEEMf/SICXm/74cdHvSaHLgDvqXKgDu6CynR6kJcpZqMcBQ1sAOP5HEgZNn96nTX+CtOj3pCBl4MjmQOr1UN+UTf4T6nHA0BYAjv9RscUqKtBv4qRef18YFv2eeFkGuDkQSQjzOGBoCwDH/6jYBp1zbs6b/nQv+vVHFv2SUC36PTm+DNhlJYgPGwdr1GSoXMYlDQPOGefD3LWu8GGJ/iK044ChLAAc/6Nii1VWomLs2FN+zckX/X6hXvR74mqFrrZOdO3eDuPVbTmXAT14PLC3imcBqJhCOw4YygLA8T8qtoqx46Bw4sLFRf/0elcGFNxBZ8LY+2eRrBRJoR0HDGUB4PgfFVvJwEHv/jUX/fzlUgZ0+WDhlBQ94RwHDF8B4PgfCTBLSnBoz6HjbuTjot8Xx5eBozcQ2gOGSkej6AnlOGDoCsCkHQMuAFyO/1FRbdnShK7EQIT9Rj4px95AGNuzHf35Z0zFFcpxwNBdJ1famS+dgSLIyUoniAzlutIRKIq0O1c6gtdCWAAwWzoDRY/V1SwdITIsIyMdgSIojGtL6AqAhrpQOgNFT7xtv3SEiNBIsACQjNCtLaEqAFP/4dEzAIyUzkHRY6UPI9YRujFh34kZGViKl1tIxBkTk4+NkA7hpVAVgKyDc6QzUHRVHKqFcrk4FYqCRqXZLh2DIsxAuNaYUBUABWOUdAaKLjPTjspDmwHNPSi8p1FltcFUoZrCooDRSoXqDHOoCgC0Hi4dgaIt3voOyppekY4ROmVmCnGjSzoGRV3I1phwFQAgVP9xKJjKGnci0fa2dIzQiBtplJsd0jGIoEK2xrAAEHlOo+LgZlidTdJBAs9SWVRZrdIxiI7gGQA/q5AOQAQAynXQb//zMLMp6SiBZSgX/e1WKD7Xg3xCwaiUzuClUBUABd4hRP5hZDtRuf85QPPHsrcUNPpZLTDAPzvyDw0dqk0oQlUAwvYfh4LP7jyMqgMvcTKgVzQqrTbYnPcn/wnVGhOqAoCQ/cehcIi3vYNSTgbkrNzsRIJ3/JMvqVCtMSErAOH6j0PhUd64E3FOBpxW3OhCGTf7IZ/S0KE6LRWyAuAekk5AdHIalQc3w+ZDg3rUfcd/m3QMoh4pqIPSGbwUrgKg1KvSEYh6olwHVfue42TASRhw0d9q4R3/5GsKeF06g5dCVQAMrVkAyNeMbCcq9z0P5fLu9qO67/hvhaFc6ShEp6RVuNaYUBUAbRih+o9D4WR3NaPyIJ8ZcFSF1Qabj/ilADCU+5p0Bi+FqgCk3cyrAM8hkv/F295GWfNu6RjiyswOlPCOfwoGnY13sQD41e7k5S0A6qRzEOWirGE74m37pGOIiRlplJm8H4KCQQNbdn7lmlDtSx2qAgAAGvop6QxEuao8+BKsrhbpGEVnKgf9LG7zS8GhQri2hK4AKKVC9x+Jwku5WVTtfw5GNjqnwXnHPwWRgfCtLaErAIZ2/wiAtxNTYJiZDlTtfw5KR+PHtspqhcnHdlCwODbsp6VDeC10BaAuuawRwHPSOYh6w+5sQsXBl6VjFFyl1YYY7/in4Nm0ObkwdLt4ha4AAIBS+JF0BqLeSrTuRWmIJwNKzQ6UGJ3SMYh6T+kfSUcohFAWgLTO/gxAh3QOot4qr9+GWPt+6Riei6s0ynnHPwVTu5voXCsdohBCWQCOjAP+WjoHUT6qDvwZVvqwdAzPmMpBpd3Gm/4okBTwQNjG/44KZQEAAA31A+kMRPlQbhZV+56HcoI/GWAoF/2sFhi8L5cCSkPfL52hUEJbAHYkF68HELq7NikauicDng/4ZIBGldUKi3f8U0ApoGZ7cmlo15HQFgAAUIb7TekMRPmKpRpRcSi4kwGVVjtiinf8U3C5UKFeQ0JdALbdtuwZAI9L5yDKV6JlL0qbgveMqzIzxTv+KdA09CNHziSHVqgLAAC4wNfBBwRRgJU31CHefkA6Rs7iRhplJodwKNC0Cb1KOkShhb4A7EwueQHAD6VzEPVF5YEXAvHMAEtlUWnxjn8KOn1fXXJZ6DeUC30BAAC7TH8e0ME7j0p0hHIdVO171teTAd13/Lfyjn8Kujfcks6/kw5RDJEoAFu+tLTdgPFR8BkBFGBmNoV++17w6WSA5h7/FAauhvpYWOf+jxeJAgAAdcnFGzRwl3QOor6wOxtQ7sNnBlSavOOfwkDfGfYb/44VmQIAAG2V5V8F8KJ0DqK+KGndi9Jm/1zRKjVTKDF5xz8F3outlRVflw5RTJEqAG99cW7KBa4G8I50FqK+KK/3x2RA3EijwmyXjkHUVwdMS1/31hfnRuqBFZEqAACwM7nkHQ19A4C0dBaivqg88AKstNylSks5qDIjcamUwi2jDdxY+82le6WDFFvkCgAA7Egu3Qil/lY6B1FfHJ0MMJzid1kFjX5WC5TiuB8Fm1L47I7blvxROoeESBYAANi+avEaBfWf0jmI+qL7mQHPAbqYC3H34s87/inoFPCjbauW3CudQ0pkCwAAlAzv/xnwgUEUcHaqEZVFfGZAhdmOmME7/inwNqYHZFdKh5AU6QLw4orzMqZtLNfAW9JZiPoi0bIHJYdfL/hxSs0USnnHPwXfPhe4YffnLvfvzlpFEOkCAAC131h0QAPXAWiTzkLUF+X1tQWdDIipDO/4pzBo04a+amdySeSnwSJfAIDu5wUohWvByQAKMKU1Kg+8WJDJAEs56Gf5/1kERKeRMWDcsOO2pdwPBiwA79q2askTSumPg08OpABTbvbIZIB3ZzZ5xz+FhNbAp+uSix6RDuIXLADH2LZq6f8o4JvSOYj6onsy4HnPJgP62dzjn0JA4Ws7kkt+JB3DT1gAjrMtueQ7GrhTOqXRr4oAAAkZSURBVAdRX3g1GVBhtiOmeGWMAu+e7auW/LN0CL9hATiJHdj4BQX9K+kcRH2RaNmDkubX8v7+UiOFUjNSO6NSCGngd9unNH9GOocfsQCcTDLpdiD214B6RjoKUV9U1Nfl9eCgUjOFCot3/FPgPd0J+0YsX85rWCfBAtCDN5ILOw041wLYJp2FKH8a5fV1qDi0Fco9/eY9Ci4qzDaO+1EY1Fnx9LVvJBdy44oesACcQl1yWaNpG5cqYId0FqK+KDn8Oga9+STKG3fASh8+4d/bKotyswOD7GZu9ENhsNsFlmz92pVN0kH8TEkHCIIJyYdH2bCeBjBOOovXhuz+nXQEEqCVCddOAF2dMJQLxenXSDo44WrpCIWwR8O5ZEfysjekg/gdzwDkYHfy8rcMqAUA3pTOQuQFpR2Y6XaYyuHiT2Gy1zX1Ai7+uWEByFFdcvEeDWMJgH3SWYiI6ARvG3Av3fmtpYV/KEZIsAD0wo7kol2uqecB4A8YEZF/7DHgLqhLLtstHSRIWAB6aee3lr4Oy1wI6N7PVhERkdfedGAs5OLfeywAedj+zfe9aVpYCOAV6SxERBG2K4Ps/F3JRfnveBVhLAB5qv3m0r0usADcJ4CISEItbHfB7uTlb0kHCSoWgD7YmVzyjhVPz1dAjXQWIqIIedaBvXD7N5bxpuw+YAHoo61fu7KpBF1LAPxeOgsRUfiph0rRdemu5MJ66SRBxwLggReTV3Vsn9J8DYAfSGchIgov/ZPS4f2vfzF5VYd0kjCwpAOExvLlznboT01JPnZIQ31VOg4RUYhoQH17e3LxbYDizlUe4RkATym9Lbn0a0qpjwPgQ9SJiPourZX+2Pbk4m9x8fcWC0ABbFu1+H7XwKUADklnISIKsEYNtXTHqqU/lg4SRiwABbLztiU1pmnO4ZMEiYjysts1nbk7kovXSwcJKxaAAqr91vteTSM7G8BvpLMQEQXI7614+oKd37psp3SQMGMBKLDdyctbticXvx8KXwXgSOchIvIxDeCft2Pj1Vu/dmWTdJiwU9IBomTi7Y8sVNr4uQKGSGc5asju30lHICIhBydcLR3hWA1aqQ/tWLX4UekgUcEzAEW0c9WypwBnNoDnpLMQEfnInwyoc7n4FxcLQJHtSF72xlDY8xT07eAlASKKNlcDd5YOH3BxXXLxHukwUcNLAIIm/f26Ocp1/wfAOKkMvARAFF3ClwD2APrD25NLn5YMEWU8AyBox22LNhlwz9PAL6WzEBEVj/pFHPYMLv6yeAbAJybd/uhVSqs1AEYW87g8A0AUXQJnAA4A6svbk4t/UuwD04l4BsAndqxa+mAc9lQF9Z/oHoUhIgqTB3TMqObi7x88A+BDk29/dDG0uhdFuDeAZwCIoqs4ZwD0q0qpFdtWLXmiCAejXuAZAB/avmrp4waaJ0HhbwHVKp2HiCgPHQr69hRiU7n4+xPPAPjcxORjI0yoVRr6kyhAYeMZAKLoKtAZAA3glwbUrRzt8zcWgICoTj5ygQvj/wGY7+XrsgAQRZf3BUA9Yxjq7+puW/S8xy9MBcACEDDVycfnO9C3K+BSL16PBYAourwqAAqocZX+5x2rlj7oyQtSUbAABFR18vH5LnQSwPv68josAETR1dcCwIU/2FgAAm7K3z9ykXaNzwC4DoDd2+9nASCKrjwLQBrAr10Dd+28bUmNx5GoiFgAQmLqt9cNdbLuR6FxE4AxuX4fCwBRdPWyAOwD8BPT0qtrv7l0b4EiURGxAITMguRT1gGkrwSMvwL0lQDKTvX1LABE0ZVDAWgD1O8B9+dDEXtofXJhthi5qDhYAEJsbPKpREKlFyutbgBwDYDK47+GBYAounooAB2AehLAAwasX9clF7YVORYVCQtARIxNPpUoQfoCKHUJNC4CMAdAOQsAUXQdKQBtADYC+hkAT2cGOM/u/tzlXbLJqBhYACLk/3z1H/t3ZdPzlYEprtbjHCM2VmezYo8iJiJZyrJeN930G4ZSr0PrumwGG/7335PN0rmoOFgAQu6yz94ZL080flADH0X3JkKmcCQi8i8HwDMA7ldl+PkDyWRaOhAVDgtASCWTSWNrm/qEUnoVivyIYSIKhbc0sOpX303eDz6hNJRYAELohq8kR8PFTzUwTzoLEQWbUnjazFp//fN//SZH/0KGBSBkrv/S388z4P4OwADpLEQUGvVKG1c/8C+3bZIOQt5hAQiR6798+0JD64cAlEpnIaLQ6YDGFb/8l+R66SDkDRaAkHj/rcnpSuEZnGTWn4jII4cdjfm/+ZdkrXQQ6jvPny9PxXdDMlmuFNaCiz8RFVaVqfDAh2/97il3GKVgYAEIAbcDtwOYKJ2DiCJhUgfaV0mHoL7jJYCAu+GryQnawXYAlnQWIoqMjDYx6Vf/lHxNOgjlj2cAAk67+DK4+BNRcdlw8BXpENQ3PAMQYB++9btlKbTvh0K5dBYiipx2VYZhDySTfFhQQPEMQIB1qI6rufgTkZAytw2XS4eg/LEABJiCvlQ6AxFFmML7pCNQ/lgAgkxhlnQEIoouBfz/9u5YNaogDMPwP+uahARsvQIF21jYpPEaxF4sUmtjISGeTlAWazutLBbSCDYKai2Ila0Kxhi1EKzE7Dk2uYKzxc/sPM8VvNXwweHMbGc3MJ4BULM+LmQnAE27mB3AeAZApa533Zrv/0Cyc7u7j89mRzCOAVCpf7/d9w/k+7F55FbAShkAldrcWPcLJ5DOWVQvAwAAGmQAAECDDAAAaJABAAANMgAAoEEGAAA0yAAAgAYZAJX6tvH3T0T02R1A0xanZxEVMgAq9abrTiLie3YH0LSj07OIChkAdXuVHQA0bIiX2QmMZwBUrC/lSXYD0K5SJk+zGxjPAKjYwYN7r0vEi+wOoD0l4vn84f7b7A7GMwBqN127MUR8zs4AmvJp2sfN7AiWYwBUbn7/7s/JyXSnRLzLbgGa8KHvp1efzbpf2SEsxwBYAfNHe4exFTsxxO2IOMzuAVbS1xLlVtmKKwezvS/ZMSzPO86rp1y7012eRLk0DMP5KOVMdhBQqWFYlFKOY1E+zmf77yNiyE4CAAAAAAAAAAAAAAAAAAAAWEX/AcDzgLiRQNovAAAAAElFTkSuQmCC;fontSize=16;" parent="1" vertex="1">
          <mxGeometry x="670" y="180" width="80" height="80" as="geometry" />
        </mxCell>
        <mxCell id="dKHm2q9X8hIztBl-4UJd-27" style="edgeStyle=orthogonalEdgeStyle;rounded=0;orthogonalLoop=1;jettySize=auto;html=1;exitX=0.5;exitY=1;exitDx=0;exitDy=0;fillColor=#f8cecc;gradientColor=#ea6b66;strokeColor=#b85450;" parent="1" source="dKHm2q9X8hIztBl-4UJd-29" edge="1">
          <mxGeometry relative="1" as="geometry">
            <mxPoint x="900" y="370" as="targetPoint" />
          </mxGeometry>
        </mxCell>
        <mxCell id="dKHm2q9X8hIztBl-4UJd-28" value="NO" style="edgeLabel;html=1;align=center;verticalAlign=middle;resizable=0;points=[];fontSize=15;" parent="dKHm2q9X8hIztBl-4UJd-27" vertex="1" connectable="0">
          <mxGeometry x="-0.1483" y="-1" relative="1" as="geometry">
            <mxPoint as="offset" />
          </mxGeometry>
        </mxCell>
        <mxCell id="dKHm2q9X8hIztBl-4UJd-29" value="Disable&amp;nbsp;&lt;br&gt;User" style="rhombus;whiteSpace=wrap;html=1;fillColor=#dae8fc;gradientColor=#7ea6e0;strokeColor=#6c8ebf;" parent="1" vertex="1">
          <mxGeometry x="860" y="180" width="80" height="80" as="geometry" />
        </mxCell>
        <mxCell id="dKHm2q9X8hIztBl-4UJd-30" style="edgeStyle=orthogonalEdgeStyle;rounded=0;orthogonalLoop=1;jettySize=auto;html=1;fillColor=#d5e8d4;gradientColor=#97d077;strokeColor=#82b366;dashed=1;exitX=0.5;exitY=0;exitDx=0;exitDy=0;entryX=0.598;entryY=0.19;entryDx=0;entryDy=0;entryPerimeter=0;" parent="1" source="dKHm2q9X8hIztBl-4UJd-29" target="dKHm2q9X8hIztBl-4UJd-15" edge="1">
          <mxGeometry relative="1" as="geometry">
            <mxPoint x="430" y="210" as="targetPoint" />
            <Array as="points">
              <mxPoint x="900" y="50" />
              <mxPoint x="430" y="50" />
              <mxPoint x="430" y="200" />
              <mxPoint x="432" y="200" />
            </Array>
          </mxGeometry>
        </mxCell>
        <mxCell id="dKHm2q9X8hIztBl-4UJd-31" value="&lt;font style=&quot;font-size: 15px;&quot;&gt;Yes&lt;/font&gt;" style="edgeLabel;html=1;align=center;verticalAlign=middle;resizable=0;points=[];" parent="dKHm2q9X8hIztBl-4UJd-30" vertex="1" connectable="0">
          <mxGeometry x="-0.4258" y="-1" relative="1" as="geometry">
            <mxPoint x="-123" as="offset" />
          </mxGeometry>
        </mxCell>
        <mxCell id="dKHm2q9X8hIztBl-4UJd-32" value="Do nothing" style="rounded=0;whiteSpace=wrap;html=1;fillColor=#f8cecc;gradientColor=#ea6b66;strokeColor=#b85450;" parent="1" vertex="1">
          <mxGeometry x="840" y="370" width="120" height="40" as="geometry" />
        </mxCell>
        <mxCell id="dKHm2q9X8hIztBl-4UJd-33" style="edgeStyle=orthogonalEdgeStyle;rounded=0;orthogonalLoop=1;jettySize=auto;html=1;entryX=0.667;entryY=0.25;entryDx=0;entryDy=0;entryPerimeter=0;" parent="1" source="dKHm2q9X8hIztBl-4UJd-15" target="dKHm2q9X8hIztBl-4UJd-16" edge="1">
          <mxGeometry relative="1" as="geometry">
            <Array as="points">
              <mxPoint x="460" y="320" />
              <mxPoint x="460" y="320" />
            </Array>
          </mxGeometry>
        </mxCell>
        <mxCell id="dKHm2q9X8hIztBl-4UJd-34" value="Account: [Account Name]&lt;br&gt;&amp;nbsp;Has been disabled" style="edgeLabel;html=1;align=center;verticalAlign=middle;resizable=0;points=[];fontSize=13;" parent="dKHm2q9X8hIztBl-4UJd-33" vertex="1" connectable="0">
          <mxGeometry x="-0.0444" relative="1" as="geometry">
            <mxPoint as="offset" />
          </mxGeometry>
        </mxCell>
        <mxCell id="dKHm2q9X8hIztBl-4UJd-35" value="Attacker Machine" style="shape=image;verticalLabelPosition=bottom;labelBackgroundColor=default;verticalAlign=top;aspect=fixed;imageAspect=0;image=data:image/png,iVBORw0KGgoAAAANSUhEUgAAAgAAAAIACAYAAAD0eNT6AAAABHNCSVQICAgIfAhkiAAAAAlwSFlzAAAOxAAADsQBlSsOGwAAABl0RVh0U29mdHdhcmUAd3d3Lmlua3NjYXBlLm9yZ5vuPBoAACAASURBVHic7N15nGR1fe//V+3VtfS+Tg+zADPDNgyrgGCuuWBA1BiDEcVoQhQSiRpMzK733l9uFr2/qzEm92JiXBL34BIRNOASFhGBYRmYhdmZme6e3teqXmq9fxQ9zAyzdNf3W1Xn1Hk/H496QAz1qS9D1Tmf810+HxARERERERERERERERERERERERERERERERERERERERERERERERERERERERERERERERERERERERERERERkdPw1XoAIlJRzcA6YAXQDXQBMSAOhF/6ZzJAGpgFhoBBYADYDUxWebwiUiVKAETqx0rgKuAK4DLgPKDDMOYwsB3YDDwO/BzoM4wpIiIiBsLAjcCngReAYpVeO4C/A27g5VkEERERqSA/cB3weWCc6t30T/YaAz4HXItmFEVERKxrB/4Y2EPtb/one+0G/hBoq9CfgYiIiGd0AR+jtEmv1jf4pb5SlJYIzqjAn4eIiEhd6wT+Hlig9jf0cl8LlPYnmG5EFBERqXtR4CPANLW/gdt6TQF/BkQs/jmJiIjUjV+gdOSu1jfsSr12U9rAKCIiIkAC+CxQoPY36Uq/CsA/UipEJCIi4lmXAzup/Y252q99wKst/PmJiIi4zu24e5Of6StL6WijiIiIJ0QoTfnX+gbslNeXgAajP1ERERGHawYepPY3Xae9/hNoKv+PVURExLl6gGeo/c3Wqa/nKTU0EhERqRsrgb3U/ibr9NduoLfMP2MRWQY17xCpvBWUpv3X1WoAoVCIcDiM3+8/5gVQKBSOeWUyGbLZbK2GCrALeC1wuJaDEKl3SgBEKqsN+ClwTrU+0O/309DQQENDA+FwmHA4jM+3vJ96sVgkk8mQyWSYm5tjbm6OQqFQoRGf0HbgNZQ6HopIBSgBEKmcKPBD4JpKf5Df7yeRSBCLxYhGo8u+4Z9OsVhkfn6e2dlZUqlUtZKBh4FfonRUUkQsUwIgUhk+4GvAzZX8kFAoRGNjI4lE4siUfqUVCgVSqRTT09PVWCr4OnALpf0BImJRoNYDEKlTHwY+VKngoVCIjo4O2traiEQi1p/4T8Xn8xGJRGhsbCQSiZDJZCo5I3ABpcZIj1XqA0S8SjMAIvZdBTwEhGwH9vv9NDc309jYWNWb/qkUi0VmZmaYmJioVCKQA66ltCQgIpY44woiUj/agS2Udv5blUgkaG1tJRBw5sRdPp9nfHycVCpVifADwCZgtBLBRbzImVcSEXdaXPe/zGpQn4/29nZaWlqqts5fDr/fTzweJxQKMTc3Zzt8EtgIfNV2YBGvUgIgYs/vvfSyJhQK0d3dTSwWsxm2osLhMPF4nPn5efL5vM3Q6ygdC3zcZlARr9ISgIgdFwE/p9Tox4qGhgY6Ozsd/dR/KoVCgeHhYduzAQvAlcCzNoOKeJESABFzceBJ4FxbAWOxGJ2dnY7Z6FeuYrHI8PAws7OzNsPuBi4FZmwGFfEaLQGImPsMpYI1VtTLzR9K+xfi8TjZbNZmzYA2oBO4x1ZAES9SAiBi5mbgr2wFa2hooLu7uy5u/ot8Ph+xWIyFhQVyuZytsJcALwDbbAUU8Zr6ucqIVN8ZlI78tdgIFgqFWLFihWvX/E+nUCgwMDBgcyZgCrgY2G8roIiX1OeVRqTygpTK1Fq5+fv9frq6uur25g8V+XdsAr5BBQouiXiBlgBEyvM/KdWot6Krq4tIxNoBAscKBAJEIhGbxYJ6KSVjP7YVUMQrlACILN9/Af4JSzNozc3NJJNJG6FcIRQKUSwWWViw1uTvauBnwD5bAUW8oH7nG0Uqo51SNToryXMkEqG5udlGKFdpaWmxOePhB74MdNkKKOIFSgBEls4HfA5Ldf79fj8dHR11teN/qXw+n+0iR13AF9DGZpEl0xKAyNJZLfXb3t5OQ0ODrXCu4/f7CYVCpNNpWyFVKlhkGZQtiyzNRko3Fit37GQySXt7u41QrjcyMmJzU+ACpXbMz9gKKFKvtAQgcnpx4N+wdPMPhUK0trbaCFUX2tvbCYWsneSLUPpv5Z1dlSJl0hKAyOl9BnidjUA+n4/u7m6CwaCNcHXB5/MRjUZtzgK0olLBIqelBEDk1N4K/I2tYG1tba5q7VstgUAAn89ns3PgJZSaBj1vK6BIvdEeAJGTs1rqd7HOv5zc0NCQzc6BKhUscgraAyByYlZL/QYCATo6OmyEqmvt7e0EAtYmJlUqWOQUtAQgcmJ/ieVSv+Fw2Fa4uuX3+ytRKjgA/MRWQJF6oQRA5JVU6reGFjdIzs/P2wqpUsEiJ6AlAJFjqdSvAzQ3N6tUsEiFKQEQeZlK/TqESgWLVJ6WAEReplK/DlKhUsETqFSwCKBsWGTRRuAJIGojmEr92jM6OsrMzIytcCoVLPISLQGIvFzq18rNX6V+7Wpra1OpYJEK0BKAiEr9OppKBYtUhhIA8TqV+nUBlQoWsU97AMTLVgHPolK/rqFSwSL2aA+AeJVK/bqQSgWL2KMlAPGqvwTeYSuYSv1Wh0oFi9ijBEC8SKV+XUylgkXs0BKAeI1K/dYBlQoWMacEQLxEpX7rhEoFi5jTEoB4yZ2o1G/dUKlgETPKdsUrVOq3TqlUsEh5tAQgXqBSv3VMpYJFyqMlAPEClfqtYxUqFdyFSgVLnVMCIPXu14C/thVMpX6dKRAI4Pf7bZYKvhiVCpY6pz0AUs9U6tdjVCpYZOm0B0DqlUr9epBKBYssnZYApF6p1K8HVahUcBD4sa2AIk6hBEDqkUr9ephKBYssjZYApN50oFK/nqdSwSKnpwRA6okP+GdU6tfzVCpY5PS0BCD1RKV+5QiVChY5NWWzUi9U6ldOSKWCRU5MSwBSD1TqV05KpYJFTkxLAFIP/hGV+pWTUKlgkRNTAiBup1K/cloqFSzyStoDIG6mUr+yLJZLBaeASyglAiKuoz0A4lYq9SvLZrlUcAL4CqASkeJKWgIQt1KpX1k2lQoWeZkSAHEjlfqVsqlUsEiJlgDEbVTqV4ypVLCIEgBxF5X6FStUKlhESwDiLir1K9aoVLB4nbJVcQuV+pWKUKlg8SotAYgbqNSvVIxKBYtXaQlA3EClfqViVCpYvEoJgDidSv1KxalUsHiR9gCIk6nUr1SVSgWLl2gPgDiVSv1K1alUsHiJlgDEqf4KlfqVKlOpYPESJQDiRP+F0sY/lfqVqlOpYPEKLQGI06jUr9ScSgWLFygBECexXuq3s7NTpX5l2VQqWLxASwDiJNZL/UajVmoHiQdVqFTwJPBzWwFFTCgbFadQqV9xJJUKlnqlJQBxApX6FcdSqWCpV0oAxAn+HjjHRqAKrN2Kxy1+pyzuJTkb+DtbwUTKpT0AUmsq9SuOV6FSwXtQqWCpIe0BkFpaS2kttMlGMJX6lUpTqWCpJ5onlVoJUiqTauXmr1K/Ug0qFSz1REsAUisq9Suuo1LBUk+UAEgtqNSvuFaFSgU/hkoFS5VpCUCqTaV+xfWam5ttFpnyA18CtIFFqkoJgFSTSv1KXfD5fHR0dKhUsLialgCkmlTqV+pGBUoFn41KBUsVKduUalGpX6lLKhUsbqUlAKkGlfqVuqVSweJWSgCkGlTqV+qWSgWLW2kPgFSaSv1K3VOpYHEj7QGQSjoTeBqV+hWPUKlgcRPNo0qlBIEvo1K/4iEqFSxuoiUAqRSV+hXPqVCp4BAqFSwVoARAKkGlfsWzKlAq+NWoVLBUgJYAxDaV+hXPU6lgcQMlAGKTSv2KoFLB4g5aAhCbPgR80FYwlfoVN1OpYHE6ZZNiy8WU1ikjNoKp1G9JsVgkn8+Ty+UoFArk83kKhcIrXsVi8Zi/Aq/463ItPr0e/Vefz3fMX49/LZ6HDwaDBAIBzd5QkVLBr6Z0vFbEiH6dYkMceArYYCNYKBSit7e37m8ehUKBXC73ilc+nz/yKvfm7RSLScHiKxgMvuJV71Udi8Ui/f39ZLNZWyF3AZdSqhMgUrb6vsJKtXweuNVGIJ/Px4oVK+rmyF+xWCSbzZ7w5fabuy2LU+UnetVLEpjJZBgYGKBYLNoK+UUs/ebEu+rj1yW19A5Ku/6taGtro7Gx0Va4qspms2QymWNeuVyu1sNytWAwSDgcPuZlsfFOVU1PTzM2NmYz5C3A12wGFG9RAiAmrJb6jcVidHV12QhVUYtP9QsLCywsLBy52Vt8upNT8Pl8R5KBSCRCJBJxzWyB5VLB05T23qg+gJTF+b8YcaoQ8AhwhY1ggUCA3t5em2VUrcnlckdu9osv3eydxefzHUkGFl+LBXmcJJ/P09/fTz6ftxXyceA1gLUNBuIdSgCkXH8D/ImtYN3d3TQ0NNgKZySfzzM/P8/c3Bzz8/M2N29JFQUCAaLRKA0NDUQiEcfsK5mfn+fw4cM2Q34M+FObAcUblABIOa4D7sdiqd+WlhYbocqSy+WYm5s7csO3+HQmDhIIBGhoaDiSFNRyhmBiYoLJyUlb4QrA9cCPbAUUb1ACIMvVAWwBemwEi0Qi9PT0VHX9tlgsHrnhz83N6Qnfo0KhEA0NDcRiMaLRaNW/g4cPH2ZhYcFWyMPARcCwrYBS/5QAyHJ9G3iLjUB+v5/e3t6qPInlcjlmZ2eZnZ1lfn5ea/hyDJ/PRzQaJRaLEYvFqvad7O/vt3kc9DvAr9oKJvVPCYAsxzuBL9sK1tHRQSKRsBXuFTKZDOl0mrm5OZtPWuIBoVDoSDJQyXLU6XSa4WGrD+3vxOKxXKlvSgBkqXqArUCrjWCVKvU7Pz9POp0mnU5rLV+sCAaDxGIx4vF4RZIBy6WCx4ALgEFbAaV+KQGQpfoO8Cs2Atku9buwsHDkpq/CO1JJwWCQeDxOPB4nErHS9qISpYK/BbzVVjCpX0oAZCn+K/BjG4FslfrNZrPMzMzopi81EwwGSSQSJBIJ4+qEFSgV/FrgIVvBpD4pAZDT8QNPUGo+Ysyk1G+hUCCdTpNKpZifn7cxHBErQqEQyWSSRCJRdjEry6WCn6X0m1XDCTkp55VdE6f5DeB9NgLFYjHa2tqW9Z7FI3sTExOMjo4yOzurJ35xnEKhwNzcHNPT02QyGXw+37JnBSKRCJlMxtZSQDewF3jORjCpT5oBkFMJAXuAVaaBllvqN5fLMTMzw8zMjDbzAT4fdLVF6GqL0tIYorkxVPprsvT3zcnQkf+9ORkiFg0QCvlJxEp/3j58NDe+fENqjAcJBEo//3y+yHT65aRqcjpLkdJUdGo2TzZbYHY+z+RMlompLJMzL72ms0xMH/v3Q2PzDI0toFOWpSWCZDJJMplc8vfecqngF4F1gDJmOSElAHIqvw58yUagpZb6XXyKstgwxfFCQT+rVzTQ29XAGd1Rejqi9HY2sPKlvz+ju4Hu9gihoJXCixWXyRYYHF2gb2iOgeF5+ofm6Rua4/DIPIcG5+gfmufAwCy5vDeyBJ/PR0NDA42NjUv+DQwOWtvEr46BclJKAORkfMAzwCbTQE1NTbS2nvz0YKFQYGZmhunp6bqe3u/tirJ+dYL1axKsWx1nw9oE61cnWLsy5pqbuy3ZXIH9fbPsfDHFrhdT7HoxXfrrgRQDw/W7v2Nxr0AymcTvP/l/8/Hxcaampmx85DPAJTYCSf1RAiAncz3wH6ZBTnXkL5vNMj09TSqVslkNrebamsNcfG7TkdeGNUnWr4mTiDmvO50TzaRz7D6Q5oX9Mzz7whTP7Ci9xiYztR6aNX6/n0QiQWNj4wn3Clg+Gvg61CdATkAJgJyMlXP/PT09ryieMj8/z/T0NOl02jR8zfV0RLn0vGbOPzvJeWclufT8Zs47K4kLWtO7zsDwPE9tn2T73hm27ZnhqW2T7Ng34/r9BovLA7FY7Jj/3WLXwG8Cv2YjkNQXXabkRNqAAcDosH4ikaCjo+PI/51Op5mcnCSTceeTXDTi51UbW3jNpW1cfXErV1zYQmuTM1rMetXYZIbHn5vg0WfGeeSpMZ7cOsH8gjtnkyKRCE1NTcTj8SP/28jICKlUyjT0AqVKnhOmgaS+KAGQE7kD+D8mAXw+HytXriQQCBy58but614yHuSKC1u4+uJWrrmkjWsuaSMa8dZavdvk8kW2vDDFT58e59FnxvjJ46OuWzoIhUI0NjaSTCbJ5/P09fXZKBD0O8A/Whie1BElAHIiPwOuMgmQTCYJh8NMTU25ZmNfMh7kuqs6uPbKDn7h0jbOPzuJ36+fiJsVCkW27pnh4c1j/PjnI/z45yPMpN3xfQwGgzQ1NZHJZGz0CvgZcLWFYUkd0dVNjtdFqbe40XfD5/M5vuWuzwebNjRxwzWdXH9NJ1df3Oq53fhek80V+OnT49z/02H+46fDPLdryvF7CCz9lgqUlgGsth4Ud1MCIMd7N/AvtR5EpbQ2hbn2ynauu6qDG3+hi5Vdpz+XLfVreHyBh54c43sPDnLfQ0OMT7lruWCZfh34Sq0HIc6hBECO9xVKxUPqxqqeBm563Qpu+qUVXHlhy5EKeCJHy+eL/OzZcb71wwG+/cPDHBqcq/WQbPsSpQRfBFACIMfyU+oj3nG6f9Dp1q6McdPrVvDWX1rBqza26FieLEuxCI8/N8E3Hxjgmw8McGCgLipTDlFaBnD4oodUiy6LcrQNwAu1HkS5Vq+I8eb/2s2vXb+Cqy9u001frNm2Z4a77+/n6z/oZ+d+42N5tXQ2pSZBIkoA5Bg3A1+v9SDK8c1PXc5Nr1tR62GIB3zzgQF+7UNP1noY5XobcHetByHOoC3PcrRLaz2Ack1MuavGgLjXxLSrv2vqCyBHKAGQo11c6wGU67Et47UegnjEY8+6+rumBECOUAIgR1tX6wGU62fPuPqiLC7yqLu/a2fXegDiHEoAZFEAcO0i+s4XU4yML9R6GFLnRicy7D7g6k2AK9F1X16iL4IsWgG8si+pSxSL8PPn1OtEKutnz447vnLgaYSB7loPQpxBCYAsWlXLD08mkwSDQaMYLl+bFRcwXWoKBoMkk0lLoynb6loPQJxBCYAsaq3Fh8bjcS644AIuv/xyWlpajGL97FnNAEhlma7/t7S0cPnll3PRRRfVMhGoyW9dnMfskUvqSVWL4icSCdauXUtHx8tFB5uamhgZGSk75hPPTzA7nycWDdgYosgx0nN5Nm8zSzKbm5sBaG1tpbW1lZGREfbv308qVdV9BbFqfpg4lxIAWRSvyofE46xevZquri58x5XqW7w4lmtuPs8Djw7zK9f2GMUROZH7Hx1mfqFgFOP473hHRwcdHR2Mjo6yb9++aiUCSgAEUAIgL6voDEBDQwNnnnkmnZ2dr7jxL0omkwQCAfL5fNmfc89/DioBkIr43n8OGr0/EAiQSCRO+P9rb2+nra2N4eFh9u3bx9xcRRsRVSXZF+dTAiAVFQgEWLVqFatXr8bvP/WWE5/PR1NTE+Pj5a+z3vfQEPl8UR3/xKp8vsi9D5klAM3NzSdNfqH0/e/q6qKzs5O+vj72799PLpcz+syTcPc5BrFGmwBlkfVHju7ubq666irWrl172pv/otZWs/1Jw+MLOg4o1j36zDijExmjGEv9bvt8Ps444wyuuuoqVq5cecqkoUx10dpQzCkBkEXWLgrJZJJLL72U8847j3A4vKz3trW1GX/+PYZTtSLH+96D5t+p5X63Q6EQ69ev57LLLqOpqcn484+iBEAAJQDyMuOLQiQS4ZxzzjG6YMXjcSKRiNE47vnJYaP3ixzPNKmMRCLEYuXtvVtMqC+44AKi0ajROF6SthFE3E8JgCwaM3mz3+/nyiuvZMWKFcZTlqbLAC/sT7m9Z7s4yAv7U+x60ez7ZGNmq7OzkyuuuGLJy2mnoIpZAigBkJcdMnlzoVCgUDA7IrXo6NoA5fryvUb/OiJHfOke8++Sje80QD6ft/E7O2hjLOJ+SgBk0QBg1Oh8dtbO0mJrayuBgFkxny9+5xD5vDY7i5lcvsgX/93sfhkMBo2rXC6y8BvLANokI4ASAHlZnlISULaZmRkrA/H7/cZTpn1Dc9z/6LCV8Yh3/eCRIQaG541itLW12Zi2B2B6eto0RB9gZ6pOXE8JgBxtl8mbLVycjrAxZfq5bx2wMBLxss9/23y23Nb0P1hJsnfbGIfUByUAcrSnTd48MWHv/H17e7vxMsA9/znI4OiCpRGJ1wyNLXDfQ0NGMQKBgJUNgIsmJydNQzxlYxxSH5QAyNGeMXnzwsIC6bSdE0aBQID29najGLl8kS9/T5sBpTxf/PeDZHNms+UdHR3GieyimZkZFhaME1qjJF/qixIAOZrxxcGkm9/xuru7jWNoGUDKUSzamf7v6uqyMJqS0dFRG2GMknypL0oA5Gh7AKOdc0NDZlOmR2ttbSUUChnFeGF/ih/+zF5SIt5w/6PDxmf/w+GwcU2Lo1n4bQ0C+y0MReqEEgA5WhH4oUmAdDpt7TSAz+ezMgvw1/9ktLdRPOhvPmv+nenu7rZWx39mZsbGEcAHUCMgOYoSADne/aYB+vv7bYwDgN7eXuMYDz45yqPPqPiZLM3Pt0zw8GajwpgA9PTYa0vd19dnI8x/2Agi9UMJgBzP+ClhcHCQbNaoptARsViM5uZm4zgf+6xOP8nS/M/P7DSO0dLSQjwetzAayGQyNqb/C8CPLAxH6ogSADneEPCYSYBCocDBg/aqja5YscI4xn0PD/LcLnt1CqQ+PfvCFD94xHwfi43v7KKDBw/aKP/7M0CbYeQYSgDkRL5kGqCvr49Mxqx/+qLOzs5ltxU+XrFoZ11X6tvffHY3RcNV8nA4bK34TyaTsbWkZvyblvqjBEBO5N8AowPH+Xyeffv2WRmM3++3shfg7vsH2H1AnVDlxPYeSvOtHxpVwwZg5cqV1kr/7t27l3w+bxpmntJvWuQYSgDkRMaB+0yDHD582Fp54N7eXuOLaj5f5L/9ww4r45H682ef2mHcQMpWsgql0tqDg1b69nwPMC4hKPVHCYCczGdMAxSLRXbs2GGlTXA4HLZSVOUbP+jXiQB5hUeeGuPu+82n2ru7u41rV0BpH82OHTsomq5HlBj/lqU+KQGQk/kh8KxpkHQ6zf79dmqPrFq1yjhGsQh3/s3zFAo6Di0lhUKROz/2vPHav8/n44wzzrAypv3799sqq/0U8BMbgaT+KAGQU/n/bQQ5ePCglUZB8Xjcyuaqzdsm+dd71CNASr7wnYM8vX3KOE5HR4eVo3+Tk5M2T9H8L1uBpP4oAZBT+TfAuJh+sVhk+/btVmoDrFmzxjgGwJ//3Q5SszkrscS9plM5PvJpO/tCbHw3s9ks27ZtszX1vw/4lo1AUp+UAMip5ID/biPQwsIC27dvN46TTCattFcdGJ7nY/+s4kBe95f/uNNKy+j29nYSiYRxnB07dtjo+Lfoo4DxEQKpX0oA5HS+hKUWomNjY1ZKmq5du9bCaOATX9zD3kM6FuhVu15M8ekv2zmqauM7eejQIVsd/wCeBL5mK5jUJyUAcjoF4PdtBduzZ49xs6DGxkY6OzuNxzK/UODdf/K08dEvcZ9Coch7/9uzLGTMT6h0dXWRTCaNYqRSKfbu3Ws8lqP8AWr8I6ehBECW4iHg2zYCFQoFtm3bZlzc5Mwzz7TSae1nz47zd5aeAsU9/vcX9vDIU+YNf3w+n/HTfz6fZ+vWrVaOy77kbuARW8GkfgVqPQBxjYeBW4GYaaBsNks2m6W9vb3sGKFQiIWFBSuthx96cpS3XLeCztaIcSxxvu17Z3jHH24mZ2Hmp7e317jr386dO62cknnJGPBGQGtbclqaAZClGgQ+aCvYwMCAcYezM888k0DAPIddyBS49c+ftnJDEGfL5gq860+eYn7B/Gk7GAwaP/0PDQ1x+PBh47Ec5f2UGnqJnJZmAGQ5ngc2AufZCDYxMUFnZ2fZldMCgQA+n8/K09PA8DzhoJ9fuMz8hIE41/+8aydf/76V5jqceeaZtLa2lv3++fl5nnvuOZtT/98FPmIrmNQ/zQDIct0BWHlkyeVybN++3ejM8xlnnEEsZrwqAZT6wD+zw7wgjDjT5m2T/PU/2Tn6GYvFWLlyZdnvLxaLbN26lVzOWi2Kw8BttoKJNygBkOUaBt5N6XSAsampKaNSwX6/n3Xr1tkYCplsgbf9/pNMzZgXLBJnmZjOcvPvbyabs/O0vW7dOqPmVPv27bPWKIvSb/HdwIitgOINWgKQcuyjtBnwGhvBpqamaGpqoqGhoaz3x2IxUqkUs7OzxmMZn8qybc8Mb79xJRYOGYgDFItwyx89xWNb7DSB6uzsNKr6Nzk5yc6dO62M5SUfAz5rM6B4gxIAKddDwC8B5c+DHmViYoKenp6yN/U1Nzdz+PBhK+upu15MEYsGuPoS7QeoB3/z2V3836/ZaUgVDAbZtGlT2d/TbDbLs88+a3Pq/3EszsiJtygBkHIVKHUZ+00gahosn8+TTqfp7u4u6/3BYJBgMMjYmPnZboCfPD7Kxec2sWGteXlXqZ3vPzzE7f9ji3Gnv0Xr16+nubm57Pdv27bNytHVl6SAG9DUv5RJewDExD7gfbaCmZYK7u3tNbo4H61QKPLrf/wUW3dbW6eVKtuyc4qb/2CztUqPLS0trFixouz3Wy71C3A7oIYWUjYlAGLqa8AXbQXbs2cPqVSq7Pefe+65VmoDAMykc7zpdx9nYHjeSjypnr6hOX75dx+31vExGAxy7rnnlv3+CpT6/QKq9S+GlACIDe8HXrARqFAosHXr1rJLBTc0NLB+/XobQwHgxf5ZfvHWRxkas9ahTSpsZHyB6297jIOH56zFXL9+PdFoeStdFSj1uwf4PVvBxLuUAIgNaeBtgJVH5dnZWXbvLn9ms6enh46ODhtDAUqbAq+/7TEmpnU80OmmZrK8/nd+zva91tbZ6ejoKHtvCsCuXbusnFB5yQKl35q9f0HxLG0CFFuGKSUCN9gINjMzQywWK7vHemtrK0NDQ8ZNbhsvXgAAIABJREFUhxYNjS3w6DPjvP3GXkJB5c1OlJ7Lc8Ptj/HE89bq6hONRo12/Q8NDbFvn9VmU38I/LvNgOJdSgDEpseBS4ANNoKZlAoOBAI0NjYyODhoYygAHDw8xxPPT/C263sJBlUkwEky2QI3/d6T/OcT9jbZ+Xw+LrzwQuLxeFnvr0Cp3//AYj8OESUAYtuPgF8HzBqkU9oPMD09TU9PT1mtf6PRKH6/32anNfb1zbJ97wy/+roeAn4lAU6QyRa4+Q82c++D9pI9gLPOOqvsqf9isciWLVuYm7O2D+EwcD3q8icWKQEQ22aBLZSSAOM75MLCAsViseymK01NTczMzNi8EPPCvhRPbZ/iLdf1aDmgxmbn87zlg09w70N2G+C1t7ezYUP5E1n79u1jeHjY1nAKwE3AVlsBRUAJgFTGPqABS6WCp6enyy4V7PP56OjoYHR0lGzW3ia+3QfSPPLUGL96XQ/RiH5GtTA5k+XG3/k5P3nc6tl6YrEYmzZtKrvWv0r9ilvoyiWV8jAOKRXs9/tpbW1lcHDQ5nosBw/P8f2Hh3jja7tpSpTX0ljKc2Bglte99zE2b5u0GjcYDHLxxRcTiUTKer9K/YqbaP5SKiUL3AJY6a+7sLDAjh07yn5/LBbj/PPPL2svwak8t2uaK9/xME9ZvhHJyT25dZIr3/Gw9SqNPp+PCy64wKi99I4dO1hYsFYzYorSb0jnT6UiNAMglTQBHKC0fmlsdnaWYDBIU1NTWe+PxWKEQiFr/QIWzaRzfOXePtavSXDeWcZ7H+UUvvGDft7ywScqUpNhw4YNdHV1lf3+Q4cOGZWyPoHfAh6xGVDkaNrGLGHgPGATpeN7K4FVQDfQBEQo7egP1mqAR/P7/Vx22WVl1wcA2Lt3LwcOHLA4qhKfDz5869n89Z3nEQzop2VTLl/kj/73Nv72X62W0z1i9erVnHXWWWW/P5VKsXnzZqtLTIZylIoFLVCaSTgMHAL6KFXt3AJsR7MLnqarlPfEKW3Ouxb4RUo3flctYMdiMS6//HKjmv/btm1jaMjuzvFFv/iqdr7yvy6lp8O4SaIA/UPz3PJHm3l4s92Zm0Xd3d2cd955Zb8/n8/z5JNP2qz2Vy0ZSonAT4AfAz8F7B2XEcdTAuANSeBNwM2UzhKXt8PJQXp6eoyasxQKBZ5//nnrywGLOloj/PNfXMQv/2L5JWQFvvOjw9z2359lbDJTkfjt7e1s3LjRaG/Ijh07OHz4sMVR1cw88APg34DvoZoDdU97AOrbZcBfU+rWdzOlKX5HTOWbSqVSRqWCfT4fnZ2dTE1NMT9vv9vf7Fyer3+/n6GxBV57eTvhkPbbLsdMOscH//p5/ugT25ibt1PO+Xitra1s3Lix7ON+UJFSv7UUBM4F3grcCZxFadnAboUlcQwlAPXHB/wq8HngL4CLcNkU/1KZlAqGl5OAyclJmzu3j7F52yRfva+fc89Kcvaq8krKes33Hx7iDe+zf77/aM3NzVx44YVGy0hzc3O2S/06SQi4GPht4HXAGLCrpiMS65QA1A8f8MvA1ym1CrVy/t7JTEsFQ2lTYSVnAqDUoe7L3+tjf/8sr76olUSsLiZhrDs8Ms/7/mILf/K325lKWTtH/wrNzc1GDX6gIqV+nWwV8HbgjUA/UH6rTnEUJQD1YSNwN/DHlHbve4ZpqWB4OQmYnp6uWBIAsGXnNJ/95gHCIT+XXdCsXgIvyWQLfPJf9vJrv/+k9cI+x2ttbTV+8gfrpX7dYgWlugSvBZ4ERmo6GjGmBMDdEpTW+D8PrK3xWGpmenqa5ubmskoFL/L7/XR1dVnvG3C8hUyBBx4d5u77B+jpiHLumUks1yZyjWIR7r6/n1/7/c18/Qf9ZLKVnUpva2uzcvOfmJiwXerXbdYAt1PaXPwzdJTQtTx66akLVwBfBs6u9UCcIBKJ8KpXvars/QCLisUiO3bssNpG+FQuPb+Zv/zgudxwTWdVPs8pvv/wEB/59A6e2WGlUORp9fT0cM455xhXgsxmszzxxBMV2zPiQrsoNf56stYDkeXTDID7BID/Rmlnf3tth+Ic+XyedDpddvvWRYvNg4rFIpOTlS/ve3hknq/c28e9Dw3RnAxxztok/jpdGsjni9x9/wDv/tOn+cQX9zI4Wp2b6Jo1a1i/fr2VMtBbt25lZmbGwqjqRhvwm0CRUh2BYk1HI8tSn1ea+tUEfA14fa0H4lTr1q3jjDPOsBJrYGCAnTt3UixW75p21hlxfveWtfzGm8+gtSlctc+tpLHJDP/y3UP836/tZ++h6h0t9/l8bNiwgRUrVliJd+jQIXbv1v63U7gXeCdgt0mDVIwSAPdYD3wXOKfWA3EyG6WCjzYxMcHWrVutthJeimjEz9tu6OW33rKK11za5rpZgUKhyEObx/j8tw/wzQcGmF+o7lG5UCjExo0baW5uthLPgaV+nWo78GZgT60HIqfnrquKd10G/Ael6TY5DRulgo82NzfH888/TyqVshJvuVZ2NfC2G1Zw8+t7uez8ZscmA4VCkSe3TvKNH/Tzb/f30z9UuRMVp5JIJLjwwguJRu2UYnZxqd9aGaFUcfSZWg9ETs2ZVxI52i9QKsvZWOuBuIlpqeDj5fN5XnjhhYr1D1iqrrYIN/5CF69/TRevvbyNjtbaVnUeHl/gwSdG+f7DQ/zgkWGGx2u7Oa67u5sNGzZYS/6grkr9VtMk8AZKpwTEoZQAONtrgfuA8huUe9j5559v1N71RAYGBti1a5cjpoJ9PjhnbZLXXNrGFRe2sGlDIxesayQSrkzZ4fmFAtv2TLNl5zSPPzfBI0+NsWOfMzbEBQIB1q9fT09Pj9W4Q0NDbNu2zWpMD0kDN1DaHCgOpATAuS4CHqS08U/KEAwGufzyy43qA5xIOp1m69atpNPO65USDPhYtzrB2avinHlGjDNXxlnZ3UBbU4j2lgjtLWHCIT/BgI9kvFSRcCadI5cvspApMDaZYXRigdHJDP1D8+zrS7Pv0Cy7D6TYczBNLu+8Td7xeJwLLriAeNxuqeW5uTmefPJJcrnKVSX0gEngvwDP1Xog8kpKAJzpLEpZc9Wq+vn9fqLRKOFwmHA4TCAQIBgM4vf78fl8Vo5QLUU+n6e/v5983k4DmMbGRi699FLr4y8UCuzbt49Dhw5V9ZSAvMzn87Fq1SrWrl1r1NDnRIrFIk899RTT03Y2tAcCAXp7e60uTZxKsVikWCxSKBTI5XLkcjmy2SyZTIb5+flqz2AdBq4G9lfzQ+X0lAA4TxL4OVB+g/IlCoVCxONxYrEYkYhzOgTPzc1ZLcSzevVqzjrrLGvxjjY5OcmOHTu8UhPeMRoaGjjvvPNoaqrMBNnevXs5cOCAtXjd3d3WZ6JMLCwsMDs7SzqdrtYJl63AVUBtdtLKCakQkLP4gK9QmjKrzAf4fCSTSdrb22ltbaWhoYFg0FnNaRar+dmqy2+jVPDJRKPRI+fMbT0tysn5fD5Wr17N+eefX7Ebqu1Sv83NzSSTSWvxbAgGgzQ0NNDY2EgsFqNYLFY6EeikVLX0W5X8EFkeJQDO8kfABysR2Ofz0djYSFdXF4lEwnE3/eNFo1Hm5uasLQVMTEzQ09NTkSlYv99Pa2srnZ2dpNPpijYU8rLFLn5dXV3Wp/wXZbNZnn32WWvr/pFIhI6OjqotoZUjGAwSj8dJJpMUi0UymUylPup8SkWCHqvUB8jyOPdb6T2bgCcA6+XfYrEYbW1tjr/pHy+Xy9Hf329tvbKtrY1NmzZZiXUqg4OD7Nu3T4mAJdFolLPOOsv6iY4T2bJlC2NjY1Zi+f1+ent7Xfm7Gxsbq1TdgwVKdU22ViK4LI9mAJwhDHwf6LUZNBAI0NnZSUtLS8WemCrJ7/cTDAatXYjm5uYIBoMVWzdelEgkjmz4mpmZccSRQTcKBoOsXbuW888/vypT6IcOHaKvr89avPb2dmvFiKrJ7/eTSCQIh8PMzc3Z3uQaBK4EvgDoh1FjSgCc4aPAzTYDNjQ00N3d7ajNfeUIh8Pk83lr05KTk5O0tbVV/M/F5/PR3Nx8ZH9AKpXSaYElCgQCrFq1igsuuIDW1taqTJ+nUim2bdtm7b9RMpm0Voa4VsLhMMlkkoWFBdtHIXuADPCwzaCyfFoCqL01lOpnW9vR1NjYWLULZzUUi0X6+/utbVKyXSp4KbLZLAcOHLB6xLHeBAIBVq5cyapVq4zbOi+H7VK/oVCI3t7euvr9jY+P297kOkupr8khm0FleTQDUHufpbT+b0VraystLS11c/GB0tN0NBq1Vot/8Tx0R0eHlXhLEQgEaG1tZeXKlYTDYWZnZ1Vg5iXhcJhVq1Zx/vnn097eXtXEDGDnzp1MTExYieXz+eju7nbduv+p+Hw+YrEYfr/f5nHXEKU6JzoVUENKAGrrGuB/2wrW3t5OY2N9tgwIBAJWL0CpVIpYLGata+BS+f1+mpqaWLlyJbFYjEwmw8JCbevn10pTUxNnn3025557Li0tLVW/8UOp1O++ffusxWtrayMWq8/K3dFolEAgYDMJuAB4ALC38UKWRQlAbf0zpap/xlpbW+v25r8oEomQyWSsLQWMj4/T2dlZ1enmRT6fj0QiwYoVK+jq6jpyYa335YFQKER3dzfnnnsua9asIZFI1Gy2an5+nueee87aJs2Ghgba2uq7YWckEsHn89k64eKjtPH5KzaCyfLVzzyx+1xO6difscXCPl7gllLB5Vhcax0eHmZ0dLRaFdoqLhQK0dHRceREilP+rN1c6rfWRkdHmZmx1gjqcmCzrWCydN74tjrT/6G0CcZINBqls7PTERfVavD7/YTDYWv7ARYWFigWi7S2tlqJZ2JxrbWjo4NVq1bR3NxMMBg8UsfdTWKxGF1dXZx55pls2LCBjo4OGhoaHPM93bdvH8PDw9bidXV1EQ5bL+HhWA0NDTZnrDqAb9gIJMvjjF+j96wDXgCMDue7tdCIDRMTE0xOTlqJ5fP5uOiii2hpabESrxLm5uYYHx9ncnKSqakpxxUZikajNDc309TUdKTEtFNNTEzw7LPPWjvy19zc7OjvTqVYLNRVADYAe8xHJcuhBKA2Pg18wDRIR0dH1TexOUWxWOTw4cPWNtCFw2GuuOKKmuwHKMfCwgJTU1OkUilSqRTpdLoqDYkWT2QkEokj5WMbGxtdU28im83yxBNPWPveRCIRenp6HDOzUW0zMzOMjo7aCPX3VKgMupycN7+1tdVE6eyrUWmzaDRKT0+PnRG5lFtLBVdKPp9nfn6eubm5I3/NZrPHvHK53JFWsYvTt4FA4EjL52AwSCgUOvIKh8NEo1Gi0SgNDQ1HdoK7lUr92nf48GEbM1IzwBnAlPmIZKm8/c2tjdswvPkDdb/beCmCwSDt7e3W1nLHxsY4dOgQZ5xxhpV41RYIBIjH48Tj8VoPxZEOHTpk7eYPuLK/RiW0tbXR399vGiYJvAf4pPmIZKncVyDe3QLA75oGWazTLRyZhrZl7969Nnc3i0PMzMywd+9ea/GSyaRnl9+OFw6HbSWd70cb06tKCUB1vYVS6V8jlW5m4zZtbW3W1u4LhQJbt26t+/P4XpLP59m2bZu1paJQKOSIUyNOYmkT5FrgzTYCydIoAagu400usVhMT//H8fl8Vo9Czs3NsWvXLiuxpPZ27dplrc7/4nfNjd01KykUCtmqgHinjSCyNPoWV88lwGtMg9R7tb9yhcNhq09lhw8fZmhoyFo8qY3h4WEOHz5sLV5ra6sS8JOwdG16DaXCQFIFSgCq50OmAcLhsKPPV9daY2Oj1TrsL7zwgrUnR6m++fl5XnjhBWvxGhoalICfQkNDg63k6P02gsjpKQGojh7gbaZBdPE5PZvd5PL5PNu3b7e2dizVUywW2bZtm7WOi4FAoKrdI93K0jXqHZR6BEiFKQGojjsAo9Q4EAho1/ESBAIBOjs7rcWbnp5m//791uJJdezbt4+pKXtHyjs6Olxd/6BaEomEjT+nEHC7heHIaSgBqLwIpbP/RpLJpGerjS3XYllaWw4ePMj4+Li1eFJZk5OTHDx40Fq85uZmLb0tkc/ns3Us931A1EYgOTklAJX3LqDLJIDP59P0/zI1NzdbK09bLBbZvn07mUzGSjypnGw2y7Zt26zV+Y9EIlaTSS9obGy08bDSAdxiYThyCkoAKs+45n88Htf04zLZPq6VyWTYsWOHlVhSOTt27LBW59/v99PR0aGZt2VarEhpwYdQufqKUgJQWdcBF5oG0dN/eRZLBduyWCpYnOnQoUO2GtMAdgtMeY2lYmUXAL9oI5CcmBKAyvo90wDRaNQ1ndacSKWCvSGVSqnUr4MsNpGywPgaKienBKBy1gE3mgbR0785lQqub/l8nq1bt6rUr8NYuna9CdhgI5C8khKAyvkghn++wWBQnd0sUKng+qZSv84Uj8dtdEv0YaGBmpyYvuWV0Qi82ziInv6tqUSp4MHBQWvxpDwq9etslq5htwI6ilEBSgAq43ZKSUDZ/H6/1bVrsV8qeOfOnSoVXEMq9et8yWTSxmxKAniPheHIcZQA2BegVPnPSCKR0DRkBahUcH1QqV938Pv9tjZTfgAwXk+QY+kOY99bKPW1NqInkcpQqeD6oFK/7mHpWrYaeLONQPIyJQD2GR9bicViOn9cQSoV7G4q9esuoVDI1tKbjgRapgTArkuAa0yD6Om/8lQq2J1U6tedLF3TXgNcbiOQlCgBsOtDpgHC4bCeRqpApYLdyXapX5vHQ+XkGhoabJ2uMC6tLi9TAmBPD/A20yB6+q8elQp2l0qU+rVwTl2WyNK17e1Ar41AogTApjsAoxQ3EAio/GiVqVSwO6jUr/slEgkbGy1DwG9bGI6gTku2RIGDlFpYlq25uZmWlhY7I6qRXC7H3NwcmUyGTCZDLpejUCjoqJzIMvj9fvx+P8FgkHA4fGRp0O0zFhMTE0xOTpqGGQFWAfPmI/I2d3+bnOOdGN78fT6fa6f/c7kcMzMzpNNpstlsrYcj4nqLSXMul2N+/uX7XCgUIpFIkEgkXJkMNDY2MjU1ZbqJswO4Bfi8nVF5l2YA7HgO2GgSIJFIuK4QSTabZWJignQ6XeuhiHhOPB6npaXFdUeGR0ZGSKVSpmGeAzZZGI6nqfKFuWuBPzQN0t7e7pqMvlAoMDY2xujoqJ74RWokm80yPT1NPp8nGo265jRDMBi0sU+mC3gEUBUuA0oAzP0dhu0qbRemqaS5uTkGBwePmZYUkdrJZDKk02nC4bArZgOCwSDz8/M2yji3Al+zMCTPckfK6FzrgBcwPE3R2dnpira/09PTjI2N1XoYInISbtlInE6nGR4eNg1TBM4FdpqPyJt0DNDMBzD8MwwGg664+Y+MjOjmL+Jwk5OTVmslVEo8Hrex5OkDftfCcDxLCUD5GoHfMA7igp3/o6OjNjbtiEgVzMzMMDIyUuthnJala9+tgDvWTx1ICUD5bqOUBJTN7/dbLUJTCePj4ypsI+IyqVTK8Q2qksmkjVLcCeC3LAzHk5QAlCeAhamnRCJhrRZ9JaTTaastV0Wkeqamphw9c+f3+21VY/wgqmlTFufefZztV4C1pkGcPP2fy+VcsZYoIic3NjZmY7d9xVi6Bq4GftlGIK9RAlCeO00DxGIxRx/ZGRsbU/leEZcrFAqOTuRDoRCxWMxGKONrshcpAVi+S4FrTIM4+el/dnaW2dnZWg9DRCyYm5tz9O/Z0rXwNZSuzbIMSgCWzzjTXGzs4VQTExO1HoKIWOTk33RDQwPhsFEj1UW/ZyOIlygBWJ4e4G2mQZz+9J/JZGo9DBGxKJPJMDc3V+thnJSla+LbgV4bgbxCCcDy3AEYpaqBQMDRfch15E+kPk1PT9d6CCeVSCQIBIwr04eA37YwHM9QKeCliwIHMWz76+RSnYVCgYMHD5q26gRK7Y2vu+463vzmN3PRRRfR1dXl6E2PIk6RzWYZHBxky5YtfPe73+VHP/qRtd/kqlWrHHv0eGJigsnJSdMwI8AqQM1KlkAJwNK9B/hnkwA+n48zzjjDRqZbETMzM1Z2DK9Zs4ZPfOITXHqp9uSImNq8eTMf/vCHefHFF41jdXR0OHYGMp/Pc+jQIRvJznuBz1kYUt1zZiroTMYbTOLxuGNv/oCVDn8bNmzg7rvv1s1fxJLLLruMu+++mw0bjJqOAnZ+45USCARs9UXRZsAlUgKwNNcCG02DOHnzH8DCwoLR+xsaGrjrrrvo6DBaJRGR43R0dHDXXXcZnx5ycgIA1q6RGylds+U0lAAsjXFGGY1GiUQiNsZSEcVikWw2axTj9ttv58wzz7Q0IhE52plnnsl73/teoxjZbNbKfoJKiUQiRKNRG6E0C7AESgBObx3wBtMgTn/6Ny0XGggEeMc73mFpNCJyIrfccovxJj4nlwYGa9fKN1C6dsspKAE4vQ9i+OcUDAZtrW1VjOlFYc2aNXR3d1sajYicSE9PD6tXrzaKkc/nLY2mMuLxOMGgcW8fP/ABC8Opa0oATq0Z+E3TIE5/+geMpwU19S9SHaa/NScvASyydM28FWiyEaheKQE4tfdS6jddNr/fTzKZtDQc53L6tKJIvTD9rbkhAUgmkzbqFSQoXcPlJJQAnFwA+F3TIIlEwrGFN47m85mVhBgfH7c0EhE5FdNiOaa/9Wrw+/226hW8n9K1XE7A+Xem2nkLsMY0iBum/wHj+gT79++3NBIRORXT35qTa5EczdK1cw3wKzYC1SMlACf3QdMAsVjMNeVvTS8K09PTjIyMWBqNiJzIyMiIcU1/tyQAoVCIWCxmI5SOBJ6EEoATu4RSf2kjbnn6h9JFwXSpYt++fZZGIyInYvob8/v9rkkAwNo19DXA5TYC1RslACf2IdMA4XDYuGpXtZnOVuzdu9fSSETkREx/Y26ZkVzU0NBAOGzUgHWRjgSegBKAV+oB3mYaxE1P/4tMLw6aARCpLK8lAGDtWvp2oNdGoHqiBOCV7gCMUs5AIODYjlunogRAxNlMf2NuTAASiYSNZYsQ8NsWhlNXlAAcKwLcZhokmUy64qjN8bQEIOJsXpwB8Pl8tmqp/A7grnXZClMCcKx3AV0mAXw+nyun/8H84tDX12fcUVBETiyTydDf328Uw40JAJSWASw8VHUAt1gYTt1QAnAs440i8XjcVbtsj2Z6ccjn8xw4cMDSaETkaPv37zeu4+/WBCAQCNjqp3In4L7p2QpRAvCy64ALTYO49ekfSrMXpk04tA9ApDJsrP+7cWlyUVOTlbL+FwD/1UageqAE4GXGxSKi0SiRSMTGWGrG9MiN9gGIVIYX1/+PFg6HiUajNkKpMNBLlACUrANuNA3i5qf/RToJIOJMXjwBcDxL19g3AhtsBHI7JQAlH8TwzyIYDNpao6opnQQQcSavzwBAaY+V6TIlpT0Axo3e6oESAGgGftM0SD08/YNmAEScyrQJUD0kAGDtWvtbQKuNQG5mnErVgfdQ6htdNr/fb+ucas2ZXiQWmwJ1dHRYGpGYmpiY4NFHH2XHjh3s3r2bXbt2MTExAZR6y/v9flauXMnKlStZtWoVr3rVq3j1q19dN9/pemCjCVC9JADJZJLJyUkKhYJJmDhwK/AJO6NyJ68nAAFK/aKNJBIJ40Y6TrHYFMjkx7Vv3z4lADU2NTXFfffdxw9+8AMee+wxcrncKf/5HTt2sGPHDgA+97nPEQwGueiii3jzm9/MTTfdZKsrm5TJa02ATsXv95NIJIwTIkrX/k8BZmcrXaw+7lrl+xVK/aKN1Mv0/yLtA3CvqakpPvnJT3L11VfzZ3/2ZzzyyCOnvfmfSC6XY/PmzXz0ox/lqquu4uMf/zjDw8MVGLEshdb/j2XpmruG0j3As7yeANxpGiAWi9Xdj0sJgPvk83nuuusurrnmGj796U+TSqWsxZ6amuKuu+7i2muv5Utf+pLp1KuUQQnAsUKhkK1ZKeN7gJt5OQG4FLjGNEi9Pf2DNgK6TV9fH29/+9v5+Mc/zszMTMU+Z2Zmho9+9KO89a1v1X/jKtMRwFeydO29htK9wJO8nAAYZ37hcJiGhvrrLaEEwD0eeOABbrjhBp588smqfebTTz/NW97yFh577LGqfabXKQF4pYaGBuPCZS/x7CyAVxOAHuBtpkHq8ekf1BTILe655x7uuOMOq9P9SzU1NcW73vUuvvrVr1b9s70mk8nQ19dnFKMeEwCwdg2+Gei1EchtvJoA3AEYpY6BQIBEwuj0oGOpKZDzffWrX+XOO+8sa4OfLblcjj//8z/nW9/6Vs3G4AUvvviiZ5sAnU4ikbBxuiFEqVWw53gxAYgAt5kGSSaTrm6scSpqCuRsjzzyCB/96EcdsRmvWCzyx3/8xzz66KO1HkrdsrEBsJ6vVZbqVfw2UH/ruafhxQTg14EukwA+n69up/8XqSmQM/X19fGBD3zA+InQplwuxx133GFcqU5OTOv/p9bY2GgjwekAbrEwHFfxYgJg3AkqHo/XTVGNk9FGQOfJ5XK8733vY3JystZDeYWpqSk+/OEPO2JWot4oATi1QCBgqw+L57oEei0BuArYaBqk3p/+QbUAnOhf//Vfef7552s9jJN66qmn+NrXvlbrYdSdPXv2GL2/3hMAgKamJhthNgJX2AjkFl5LAH7LNEA0GiUSidgYi6NpBsBZJiYm+PSnP13rYZzWxz72MUZGRmo9jLqiJkCnFw6HiUajNkIZ3yPcxEsJQJzScQ8jXnj6B3tNgcSOv//7v3fk1P/xZmZm+MIXvlDrYdQNNQFaOkvX5rcDnml84aUE4E2A0XbRYDBoa63J8RabApnQLIAd6XSab3zjG7UexpJ99atfZW5urtbDqAtqArR08Xjc+PQS0Ai8wcJwXMFLCcD1pgG88vS/SPsAnOG+++4jnU7XehhLNjk5ybdfjj5dAAAaGElEQVS//e1aD6MuqAfA8li6Rt9gI4gbeKUdsA/4JZMAfr/fc/3RQ6GQUUU/JQB22Hz6TyQS9PT00NraSjQaxefzMT8/z/j4OAMDA9aqCn73u9/lne98p5VYXqYEYHmSySSTk5Omp1GM7hVu4pUEYCOwwiRAPB43nhJ3G20ErL3x8XGefvpp4zh+v59169axYsWKV5yZjsVixGIxent7GRgYYPfu3cbH+Z5++mlSqVTdVsusFh0BXB6/3088HjdtirUSuADYamdUzuWVO9qrTAN47ekflAA4wdNPP02xWDSK4ff72bRpE729vacsmOLz+ejt7WXTpk3GyW4ul1OzIAuUACyfpWv15TaCOJ1XEoALTd4cCoU8cfTveDaaAmUyGUuj8aannnrKOMa6detoaWlZ8j/f0tLCunXrjD/3iSeeMI7hZWoCVJ5IJGLj33uTjbE4nVcSAKP/mPXY8ncpbDQFevHFF+0MxqO2bjWbhUwkEqxYsfzVrxUrVhhP3x88eNDo/V6nJkDls3DNNnpodAuvJADnmbzZqwmAz+fTSYAaGx0dNXp/T09PWXXSfT5fWYnD0fr7+43e73VqAlQ+C0WBzrUxDqfzQgIQAtpMApg2xnEz7QOoLdPiP62trWW/dznLBieiBMCM1v/LZ+Ga3QnUfQEFLyQAnZSOAZbF7/fbKC7hWkoAamtiYsLo/SZPQqZPUdls1uj9XqcEoHwWZj/8lDoE1jWvJABl80oVrZPREkBtma4B13IK2Ms3IBtUA8CMhWu3Udt4N/BCAmBUu1cJgGYAasl0I55JSd75+Xmjz/b6DciUZgDMWLh2131PAC8kAGaHqD1OTYFqy7TNqckSgunygxdrZ9iiJkDmvLoBcjmUAMgpqSlQba1evdro/QMDA2UVEioWi8ab+GzUEvAqNQFyhLq/d3ghATCqaWpaErUeaB9A7Zx11llG70+lUgwMDCz7ff39/cYNiDZs2GD0fi/T+r85C9dusw04LuCFBMDoILXpJqx6oASgdi655BLjGLt3717WdP7ExAR79uwx/lwlAOVTAmDOwrXbrAiHC3ghARg0eXM+n/f8LIA2AtbOVVddZbyWWSgU2LJlC/39/adcDigWi/T19bFlyxbj73wwGOTqq682iuFl2gBoplAo2EgAhmyMxcm8cMA9BaQxOA2QyWRsVJZyLSUAtdPW1samTZt49tlnjeIUCgV27txJf38/K1asoKWl5Ug74Lm5OSYmJqxM+y969atfbbyB0cuUAJix0INkGpi1MBRH80ICAPAicH65b15YWFACYGCxKZCXKyqauOmmm4wTgEWpVIpdu3ZZiXUqr3/96yv+GfVKTYDMLSwsmIZ40cIwHM8LSwAAW0zebHKWuh6oKVBtvelNbyIeNypnUVXJZJIbb7yx1sNwLTUBMmfhmm10z3ALryQAz5m8eX5+3tP7ANQUqLaam5u55ZZbaj2MJXvPe96j6X8DagJkJp/PGxexwvCe4RZeSQCM5k+LxSKpVMrWWFxJ+wBq67bbbnPFLEBTUxPvec97aj0MV9P6v5l0Ol1W7Yvj2FlzczivJACPAka7QmZmZiwNxZ2UANRWZ2cnd955Z62HcVrvf//7VQHQkBIAM6YVFIF54GcWhuJ4XkkAUsBPTQJkMhlmZ+t+U+hJaQmg9m699VY2btxY62Gc1JVXXqmnfwtMazB4OQFIp9M2ulD+FA+cAADvJAAA95sGmJiYsDG15EqaAai9YDDIP/zDPxg3CKqExsZGPvnJTxqXjRbNAJSrWCwa9694yQM2griBl36t/45hbedMJmNjesmV1BTIGVavXs2nPvUpgkHnnOANBoP87d/+LStWrKj1UFxvZGTEeLnRqwnA9PS0jaf/IqV7hSd4KQHYBTxmGmRiYsLGl8x11BTIOa677jr+6q/+yhE7vQOBAJ/61Ke49tpraz2UuqAmQOXJZrO2nv4fBXbbCOQGXkoAAL5oGqBYLDI8POzJpQDtA3COm2++mY997GM1nQkIBAJ8/OMf541vfGPNxlBv1ANg+Sxfk79gI4hbeC0B+DfAeDt/JpPx5HS2EgBnufnmm/nMZz5Tk133ra2t/Mu//Atvfetbq/7Z9UwJwPINDw/bKP0LMAXcbSOQW3gtAZgC/q+NQOl0mtHRum8WdQxtBHSe6667jnvvvbeqpwM2bdrEvffeyzXXXFO1z/QKbQBcntHRUZuns/4PFh4Q3cRrCQDA3wJWavvOzMwwMjLimeUAJQDOtHr1ar7zne/wkY98pKLFglpaWviLv/gLvvWtb2nDX4UoAViaYrFoZcPkUdLAp2wFcwsvJgBDwD/ZCpZKpRgcHLTRetLxbDUFEvuCwSDvfe97efDBB7n99tutJgLJZJLbbruNBx98kHe/+92OOoFQT9QEaGny+TyDg4O2q7P+I+C5dd3abyOujVZgJ9BuK2AgEKC9vZ1YLGYrpOMUi0Xjpj4PPPAA69evtzMgOampqSnuuecevvOd7/DMM88se5bK5/Nx+eWXc/PNN3PjjTfS0NBQoZHKop07d3L99dcbxVizZo0jTodUyuzsLKOjo7YfuIaBcwArxwjcxKup/Djw55SyPivy+TxDQ0MkEglaW1vr8ijOYlMgk2OQe/fuVQJQBU1NTbzrXe/iXe96F+Pj4zz22GM888wz7N27lwMHDjA5OUkqlSIQCNDc3ExLSwsdHR1ceOGFXHLJJVxyySVq6FNlNqb/6/Xmn8/nGR8fr1RPlj/Fgzd/8G4CAPDPwHuBy20GTaVSzM7O0tTURFNTU939IE0TAO0DqL7W1lbe8IY38IY3vKHWQ5FT0Pr/KxWLRaamppiamqpUR9bH8NjRv6N5OQEoALcATwNWz1EVCgUmJiZIpVK0tLS4oovbUmkjoEhl6Ajgsebm5hgbG6tk4bU0cCuGFWLdzIubAI+2B6hYi7VsNsvw8DCDg4N1s/lNtQBEKkMJQEk2m2VoaIjBwcFKV129g9JeMM/yegIA8Hngq5X8gLm5OQYGBhgfH6/UNFbVaAZApDK8vgRQKBQYHx+nv7+/Gp1Xvwz8a6U/xOmUAJS8h1IN6IpZXMs6dOiQqxsK2WgK5LUCSiKn4/UmQKlUir6+PqampqpRV+UR4LZKf4gbKAEomQfeTBWmgwqFAmNjY/T39zM/P1/pj7PORlMgLQOIHMv0N+HWJkALCwsMDAwwMjJSrVoqe4CbKF3zPU8JwMvGgDcAh6rxYZlMhsOHD1fzi2+N9gGI2OW16f98Ps/IyAgDAwMsLCxU62MPAK/DgwV/TkYJwLH2AtdQxXaQqVSKQ4cOMTEx4ZqSwtoHIGKXVzYAFotFpqen6evrq9SZ/pPZD/wi8GI1P9TplAC80kHgtcD2an1gsVhkcnKyWptfjGkGQMQuL8wAzM7O0t/fz9jYWLU3Q28FXk0pCZCjKAE4sQHgSuDb1fzQo4+/OPnYoGYAROyq5xmAxeva0NBQpY/1nci9wGuAwWp/sBsoATi5GeCtwJ9QKhpUNYvHBmuQKS+JjaZAVVz3E3G0TCZDf3+/UQwnJgCLBdFqNLNZBD5OaXP3ZLU/3C2UAJza4pfoeqq8dnT0WpnFlpdWmF5s8vk8Bw4csDQaEXfbv3+/8UZgpyUAMzMz9PX1MTk5WYu9TfuB66jBw5vbKAFYmh8B51NKBqq6ZT+fzzM6OuqoY4M+n8+4JayWAURK6qkJ0OKxvgp07FuKIqVW7xcCP6n2h7uREoClm6WUUV4NbK72hzvt2GA4HDZ6vzYCipTUwwbAGh3rO9pm4Crgt4GqHi9wMyUAy/c48CrgN4Chan+4U44NaiOgiB1u3gBYw2N9i8Yo9XO5ktK1WZZBCUB5ipTqSJ8F/H9AVVPeo48NptPpan70EToKKGKHWxOAubm5Wh3rA8gCn6Z0Df47qrw0Wy+UAJhJA/8D2AjcV+0Pr2W3Qc0AiNixf7/Z8fRqJwBV7NZ3Mj8GLgZ+D5iqxQDqhRIAO3YDb6RUZnJHtT+8FscG1RRIxNzIyIhxc7BqJQA1PtYHpTr+b6O0w39bLQZQb5QA2PUjYBOlNamqtvxbXIurVrdBNQUSMeeWJkCL3fpqdKwvTWmpdSNwd7U/vJ4pAbAvS2lN6hxKR1KqujhWzW6D2gcgYsbpJwBq0K3vaEVKN/zzKC21OuMcdB1RAlA5hykdSbkCeKzaH754bHD4/7V3/0F2lXcdx99393Y3S5ZNdkMChB+Z2IaAbbS1NEA6k9qgfziIv9ppYUgNdpji1LEy+k/FGbD+YVuUdhx02lI7Qw3TylSno+gf2kIElaRCEluxTScQJA1J2DW32Z93f929/vEQhBCyP87Z+5x7nvdrZocJcM5+spBzvvd5nu/zDA4yOzu7LN/DdQBSNkVdAHhm/5GIbX0HCFv4fohwPouWgQXA8nuGsHdAlLbB8fFxjh07tixtgxYAUjZFGwEowA6kZ9r6tgL/HiNASiwAWqOUbYNOAUjZFGkEwLa+9FgAtFap2gY9FEhauqIcAmRbX7osAOIoRdughwJJSxf7ECDb+mQBENe3CZXv79Pi/avzmOurVCqZi4Af/KDl9Y9UCIcOHcp0fZZDgCKf1jdGeOa9A9v6orIAiG8K+AywGdhNWC/QMllX+2YtAPbt25fpeqldPfXUU5muX8qfvQKc1reb8Kz7DC1eC6U3KsYZknqtGwiLYa6N8c17e3sZGBhY8OYitVqN4eGlT9utXLmSvXv30tfXt+R7SO1meHiYbdu2ZVqUu2rVKgYGBhb07zYaDWq1WqwDeyB0Q32CCC3RenPLv4WUFusY8JfAEWAb0NvKbz49Pc3IyAjNZpMVK1bMO8TYaDQyzR/OzMwwPDzMjTfeuOR7SO3m3nvv5eDBg5nu0dfXN++x3M1mk9HRUQYHB2MtuD0F3A18DPv5C8cCoLi+C3wZ6CKMBrT0v9Xk5CTj4+NUq9XzDjVWKpXMWw8/++yzrFu3ji1btmS6j9QOdu/ezQMPPJD5PvON1E1MTDA4OMjY2FiMef4zO6J+AHiCFk9tamEsAIptCvhnwkKZTcDbWvnN5+bmGB8fZ2pqiu7u7nM+bDo7OxkbG8vcN/z4449Tr9e57rrrWrK3udRqU1NT3Hfffdx///2Z71WtVunv7z/nP5uZmWFoaIjTp0/H6OcH+Cfgl4Gv4Tx/obkGoL3cDHyOFhcCED7p9/X1sXr16jccAnTq1KncDiC65JJL2LlzJ9u3b2fjxo1ceOGFudxXimF0dJQjR47w5JNP8vDDD/Pyy/lsBtrX18eaNWte9/fm5uY4ffr0q1N4ETwH/C7waIxvrsWzAGg/bwE+DvwR0PKVcx0dHfT3979u0d7k5CQnTpxodRQpWZdeeikrVqx49ddjY2PUarUYK/shbHD2p4SV/R7Y00Yca20/c8B3gK8CFxL2EWhZIddsNqnX60xMTNDV1UW1WqVarTIxMRHr4SMlpaur69XV/1NTUwwODsb61N8E/oYw3P93wPKcOqZl4whA+ytE22C9XmdoaChGBCkpa9eupaenx7Y+SUAo5H4dOEmoylv6ValUmqtXr25Wq9WWf2+//Erpq1qtNgcGBpodHR2xMvwvYc9+R49LwBGAclkF3AP8NmGtgCTlYQZ4gLD2yAN7SsICoJw2AZ8HboodRFLbe4zwqd8De0rGswDKKeppg5JKwdP6Ss55nHI7AjxI2I5zG9AdN46kNjAB/DFwG/C9yFm0jCwAyi9q26CkttHEtr6k+CJIz7WEtsEbYgeRVBgHCPP8/xY7iFrHNQDpeQZ4L7ALyGdfUknt6hRwF7AVX/7JcQogXd8FvkBo77kBqMaNI6mFZoC/AH4VT+tLllMAAtsGpZTY1ifAKQAFtg1K5Wdbn17HKQC9lm2DUvnY1qdzsgDQ2WwblMrBtj6dlw92zafQbYM7duyIHUEJ27NnT4xjeBfCtj7NyzUAmo9tg1L7sK1PC2YBoIVoAn8FvBX4FDAVN46ks8wQRureCvwZ0IgbR+3AAkCLMQ78IbAF+Me4USS94jHCWp3fwaN6tQgWAFoK2wal+J7Htj5lYAGgLL4N/DRhznEkchYpFROEqbh3AN+InEVtzAJAWc0Q5hyvJuwhMBc3jlRaTcIL/xrCVNxk1DRqexYAyssJ4E7gOmBv5CxS2RwAthOG/I9GzqKScB+AhbmS8IfvemAz8BNAP9CHmylJUizThMXJQ4SdTA8B+4A9wGDEXG3BAuDNXQT8BvBh4N2Rs0iSFq5J2NF0N/B14Mdx4xSTBcAbXQ7cA3wEWBE5iyQpmzHgS8D9hKlKvcLh6//XTXjxP0KYx67GjSNJykEX4XCzOwlTBk/jYmXAEYAztgB/Dfxk7CCSpGW1nzC1+3zsILHZBQC3EhaN+PKXpPJ7N6Gr4ubYQWJLfQrgE4Te9a7YQSRJLdNNaKk8SRgRSFLKBcDvAZ/HaRBJSlEHYUvzY8DByFmiSPXldxuhPSTV378kKZgFfg14NHaQVkvxBbiFMOd/QewgkqRCGAXeA/wwdpBWSq0A6CYM9VwTO4gkqVD2E3Z7nY0dpFVSWwNwD/DB2CEkSYWzHhgmobNMUhoBuJxwjr27+0mSzmUUuIrQHVB6KY0A/Alhhz9Jks6l+5W/fitqihZJZQTgIuBH+OlfknR+Y4QTYEt/gFAqOwHeji9/SdL8eoFbYodohVRGAJ4Grs3jRm/vvYBd6y/i/QOruHJFNys7U6mhJKlYxhtzHJ2cYk9tmIeOD/H9sXpet95LOECo1FIoAK4AXiTj77W7o8JnN23go5etoyOFn5oktZFGs8lXXhrkk4ePMj3XzHq7JnAxMJQ9WXGl8PF1Ozm8/L/5zs3ccbkvf0kqos5KhY9dfjHffOdmurI/qCvAz2ZPVWwpFABbs97gs1dtYHt/Xx5ZJEnL6H39fXx605V53Or6PG5SZCkUAJmO+X177wV8dP26vLJIkpbZHZet45qVPVlvszmPLEWWQgGwMcvFu9Zf5LC/JLWRzkqFXevXZr3NpjyyFFkKBUCm/wt2DKzKK4ckqUVyeHb355GjyFIoADKd+nfFiq68ckiSWuTKnszP7tIv/EqhAMgkczOJJKkdlX7yN4UCYCzLxccmp/PKIUlqkaP1zM/uTO+OdpBCAXAqy8WP14bzyiFJapEcnt0v55GjyFIoAJ7LcvFDx4doNJ0IkKR20Wg2eeh45k38/ieHKIWWQgHw/UwXj9X5ykuDeWWRJC2zB48Ncmg887kAT+eRpchSKACeynqDTx4+yr/URvLIIklaRntqI9x9+Gget/rXPG5SZKVf5QisA06Qsdjp6qjw6U1Xcsdl6+ispPBjk6T20Wg2efDYIHcfPspM9mnbGcI+AOPZkxVXKm+yJwiHAmV2zcoedq1fy46BVWzo6WJlZ2cet5UkLdJ4o8GL9Wkeqw3z1eNDeQz7n7EH2JHXzYoqlQLgN4EvxA4hSWoLtwCPxA6x3FIpAHqBY4D7+kqSzucksAEo/SYwKSwChLChw5dih5AkFd6DJPDyh3RGAABWA88DA7GDSJIK6SRwNZDEDnAprWCbBOrAL8QOIkkqpDuBZ2KHaJWURgAgTHk8Cbw3dhBJUqHsAW4koTPgUisAAK4A9gNrYweRJBXCcWAr8FLsIK2UyiLA1/oRcCuJLPKQJJ3XBHAzib38Ic0CAOAx4CPAXOwgkqRoZoCdwIHYQWJIaRHg2f4b+B7wK0A1chZJUmuNAR8AHo0dJJYU1wCc7X2EHZ8ujh1EktQSJ4CbgIOxg8SU6hTAaz0B/AxhWkCSVG7fAN5F4i9/sAA44zjw88DtwMtxo0iSlsFxwpTvh/A5DzgFcC4rgd8C7gIujZxFkpTNCeBzwBcJ8/56hQXAm6sCvwT8bewgkqQl+SDw94TV/jqLBcD8ktkVSpJKxnfcedj+tsw2btwYO4IktaUXXnghdoRScxGgJEkJsgCQJClBFgCSJCXIAkCSpARZAEiSlCALAEmSEmQBIElSgiwA5jed5eK5ubm8ckhSMnJ4dk7lkaPMLADml2nv6EajkVcOSUrG7Oxs1luM5pGjzCwA5vfjLBfX6/W8ckhSMnJ4dp7OI0eZWQDM77ksF4+OWoRK0mLl8Ow8nEeOMrMAmN8Ps1w8PT3NyMhIXlkkqfRGRkaYmcl8gF+mZ3cKLADmty/rDWq1mlMBkrQA9XqdWq2Wx6325nGTMvOoxPldAhwn48+qUqkwMDBAX19fPqkkqWRGRkao1Wo0m5lPYW8Snt2D2VOVlwXAwvwH8J48btTV1UVvby89PT1Uq1U6OhyEkZSmubk5ZmdnqdfrjI6O5jHsf8Y+4Ia8blZW1dgB2sRucioApqen8xrekiSd2+7YAdqBIwALswZ4EVgZO4gk6bzGgQ3AqdhBis7x54U5BXw5dghJ0ry+iC//BXEEYOEuI7SVOAogScU0ClwFnIwdpB10xg7QRkaBBvBzsYNIks7pD4BvxQ7RLhwBWJy3AN8B3hU7iCTpdQ4A1wO5tRKUnQXA4r0N2A/Y0C9JxTAGXIu7/y2KiwAX7zngdsJ0gCQprgZwG778F801AEtziLDI5ObYQSQpYU3gTuDrsYO0IwuApdtP2BvgF3EkRZJarQF8HFu0l8wCIJv/BP4LuAnojpxFklIxAtwCfC12kHbmIsB8bAIewe4ASVpuB4APE9ZjKQOHrvNxGNgK3EXYL0CSlK8J4FOEQ358+efAKYD8zBH2CHiIUFj9FNAVM5AklcA48OeET/3/gB1YuXEKYPmsAW4FdhJGB/xZS9LCNAkfqB4mrPD3CNVl4EupNdYB7yfsUnU1sBFYC/TiKIGkdE0TNvEZAl4gtFjvA/YAgxFzSZIkSZIkSZIkSZIkSZIkSZIkSZIkSZIkSZIkSZIkSZIkSZIkSZIkSZIkSZIkSZKkRP0frqowNoskjl8AAAAASUVORK5CYII=;" parent="1" vertex="1">
          <mxGeometry x="-660" y="473.5" width="91" height="91" as="geometry" />
        </mxCell>
      </root>
    </mxGraphModel>
  </diagram>
</mxfile>
